<svg xmlns="http://www.w3.org/2000/svg" width="60" height="60" viewBox="0 0 60 60">
  <g id="Group_1035" data-name="Group 1035" transform="translate(2322 2896)">
    <rect id="Rectangle_48" data-name="Rectangle 48" width="60" height="60" transform="translate(-2322 -2896)" fill="#fff" opacity="0"/>
    <g id="noun_Alarm_2506262" transform="translate(-2316.781 -2886.017)">
      <g id="Group_735" data-name="Group 735" transform="translate(7.37 2)">
        <path id="Path_668" data-name="Path 668" d="M35.226,13.214l.853-.994.529.447a.569.569,0,0,0,.382.141h.047a.592.592,0,0,0,.4-.206l1.47-1.729a.587.587,0,0,0-.065-.829L35.461,7.169a.564.564,0,0,0-.423-.141.605.605,0,0,0-.406.206l-1.47,1.723a.582.582,0,0,0,.071.829l.359.312-.876,1.023a16.019,16.019,0,0,0-6.41-2.564v-2.1h.864a.59.59,0,0,0,.588-.588V2.588A.59.59,0,0,0,27.17,2H20.407a.586.586,0,0,0-.588.588V5.869a.586.586,0,0,0,.588.588h.859V8.5a16.29,16.29,0,0,0-6.745,2.617L13.65,10.1l.359-.312a.587.587,0,0,0,.065-.829L12.6,7.234a.592.592,0,0,0-.4-.206.57.57,0,0,0-.429.141L8.393,10.045a.587.587,0,0,0-.065.829L9.8,12.6a.592.592,0,0,0,.4.206h.047a.569.569,0,0,0,.382-.141l.529-.447.853.994A16.067,16.067,0,0,0,7.37,24.57a16.248,16.248,0,0,0,32.5,0A16.057,16.057,0,0,0,35.226,13.214ZM10.487,24.993a.588.588,0,0,1,0-1.176h.859a.588.588,0,1,1,0,1.176Zm2.717,6.08-.747.429a.557.557,0,0,1-.288.076.585.585,0,0,1-.512-.294.592.592,0,0,1,.212-.806l.747-.429a.59.59,0,0,1,.588,1.023Zm.376-12.49a.592.592,0,0,1-.512.294.544.544,0,0,1-.294-.082l-.741-.423a.59.59,0,0,1,.588-1.023l.741.429A.589.589,0,0,1,13.58,18.583Zm15.807-4.857.429-.747a.588.588,0,0,1,1.017.588l-.429.747a.588.588,0,0,1-1.017-.588Zm-6.192-2.293a.588.588,0,1,1,1.176,0v.859a.588.588,0,1,1-1.176,0ZM17.849,35.408l-.429.741a.583.583,0,0,1-.506.294.587.587,0,0,1-.512-.882l.429-.741a.588.588,0,0,1,1.017.588Zm.065-21.041a.589.589,0,0,1-.8-.218l-.429-.741A.588.588,0,1,1,17.7,12.82l.429.741A.589.589,0,0,1,17.914,14.367ZM24.047,37.7a.588.588,0,1,1-1.176,0v-.853a.588.588,0,0,1,1.176,0Zm6.292-1.164a.6.6,0,0,1-.806-.218l-.429-.741a.594.594,0,0,1,.218-.806.581.581,0,0,1,.8.218l.429.741A.587.587,0,0,1,30.34,36.531Zm.876-11.373H25.829a2.291,2.291,0,1,1-3.4-2.546l-2.9-9.762a.592.592,0,0,1,.4-.729.584.584,0,0,1,.729.394l2.893,9.762c.024,0,.047-.006.071-.006a2.3,2.3,0,0,1,2.211,1.711h5.387a.588.588,0,0,1,0,1.176Zm2.823-7.1.741-.429a.588.588,0,0,1,.588,1.017l-.741.429a.6.6,0,0,1-.294.082.589.589,0,0,1-.294-1.1ZM35.42,31.568a.592.592,0,0,1-.512.294.6.6,0,0,1-.294-.082l-.741-.429a.586.586,0,0,1-.218-.8.594.594,0,0,1,.806-.218l.741.429A.594.594,0,0,1,35.42,31.568Zm1.329-6.251h-.859a.588.588,0,0,1,0-1.176h.859a.588.588,0,0,1,0,1.176Z" transform="translate(-7.37 -2)" fill="#c7c7c7"/>
      </g>
    </g>
  </g>
</svg>
