<svg xmlns="http://www.w3.org/2000/svg" width="60" height="60" viewBox="0 0 60 60">
  <g id="Group_1089" data-name="Group 1089" transform="translate(5728 -1831)">
    <rect id="Rectangle_287" data-name="Rectangle 287" width="60" height="60" transform="translate(-5728 1831)" fill="#fff" opacity="0"/>
    <g id="noun_urgent_2295030" transform="translate(-5729.939 1829.751)">
      <path id="Path_284" data-name="Path 284" d="M27.266,14.975h7.641a1.014,1.014,0,0,0,1.014-1.014v-2.7a1.014,1.014,0,0,0-1.014-1.014H27.266a1.013,1.013,0,0,0-1.015,1.014v2.7a1.014,1.014,0,0,0,1.015,1.013ZM27.053,17.1H21.328a.821.821,0,0,0,0,1.643h5.725a.821.821,0,0,0,0-1.643Zm0,34.073H21.328a.821.821,0,0,0,0,1.643h5.725a.821.821,0,0,0,0-1.643Zm0-5.679H15.244a.821.821,0,0,0,0,1.643H27.053a.821.821,0,1,0,0-1.643Zm0-5.679H12.322a.821.821,0,0,0,0,1.643H27.053a.821.821,0,1,0,0-1.643Zm0-17.036H14.915a.821.821,0,0,0,0,1.643H27.053a.821.821,0,0,0,0-1.643Zm0,5.679H12.322a.821.821,0,1,0,0,1.643H27.053a.821.821,0,1,0,0-1.643Zm0,5.679H11.76a.821.821,0,1,0,0,1.643H27.053a.821.821,0,1,0,0-1.643Zm5.053,3.253a1.927,1.927,0,1,0-1.926-1.927,1.927,1.927,0,0,0,1.926,1.927ZM53.86,29.174l-1.545-4a.882.882,0,0,0-1.135-.507l-2.448.926a19.813,19.813,0,0,1,2.1,5.672l2.515-.948a.882.882,0,0,0,.511-1.143ZM42.094,24.46a.748.748,0,0,1,.125-.083,14.6,14.6,0,0,0-10.1-4.056H30.343V32.689a3.27,3.27,0,0,1,3.5-.016l5.735-5.7a.778.778,0,0,1,1.1,1.1l-5.742,5.713a3.286,3.286,0,0,1-4.589,4.448v11.39h1.773a14.585,14.585,0,0,0,9.574-3.575l-.635-.635a.778.778,0,1,1,1.1-1.1l.642.642c.005,0,.007.012.012.018a14.6,14.6,0,0,0,3.893-8.64h-.847a.778.778,0,0,1,0-1.556h.906a14.58,14.58,0,0,0-3.508-9.309.758.758,0,0,1-.06.09l-.643.642a.778.778,0,0,1-1.1-1.1ZM32.11,17.122a1.8,1.8,0,0,0-.212.02V16.036H30.343v2.712h.015c0,.007,0,.013,0,.02h1.761a16.208,16.208,0,1,1,0,32.417H30.343v1.637H32.11a17.851,17.851,0,1,0,0-35.7Z" transform="translate(0 0)" fill="#c7c7c7"/>
    </g>
  </g>
</svg>
