<svg xmlns="http://www.w3.org/2000/svg" width="37.964" height="37.964" viewBox="0 0 37.964 37.964">
  <g id="Group_1296" data-name="Group 1296" transform="translate(-1545.5 -462.5)">
    <g id="Group_1236" data-name="Group 1236" transform="translate(0 -19.018)">
      <g id="noun-close-2194865" transform="translate(1440.998 447.02)">
        <path id="Path_1131" data-name="Path 1131" d="M123.484,35a18.481,18.481,0,1,0,9.241,2.476A18.482,18.482,0,0,0,123.484,35Zm0,35.644a17.162,17.162,0,1,1,12.136-5.027A17.163,17.163,0,0,1,123.484,70.642Z" transform="translate(0 0)"/>
        <path id="Path_1131_-_Outline" data-name="Path 1131 - Outline" d="M123.484,34.5a18.941,18.941,0,1,1-1.226.039l-.042-.039Zm.071,1h-.07a17.851,17.851,0,1,0,.07,0Zm-.07.32a17.662,17.662,0,1,1-6.759,1.344A17.574,17.574,0,0,1,123.484,35.818Zm0,34.324a16.663,16.663,0,1,0-6.376-1.268A16.58,16.58,0,0,0,123.484,70.142Z" transform="translate(0 0)"/>
      </g>
    </g>
    <path id="Path_1135" data-name="Path 1135" d="M195.351,8.77l-.644,13.518a.674.674,0,0,1-.674.642h-4.046a.674.674,0,0,1-.674-.642L188.671,8.77h-2.728a.674.674,0,0,1-.522-1.1L191.489.251a.674.674,0,0,1,1.044,0L198.6,7.668a.674.674,0,0,1-.522,1.1ZM198.078,22.3a.674.674,0,1,1-1.346-.087l.674-10.451a.674.674,0,1,1,1.346.087Zm-10.789-.087a.674.674,0,0,1-1.346.087l-.674-10.451a.674.674,0,0,1,1.346-.087Z" transform="translate(1372.733 469.996)"/>
  </g>
</svg>
