<svg xmlns="http://www.w3.org/2000/svg" xmlns:xlink="http://www.w3.org/1999/xlink" width="83" height="83" viewBox="0 0 83 83">
  <defs>
    <clipPath id="clip-path">
      <rect id="Rectangle_286" data-name="Rectangle 286" width="65.812" height="55.932" fill="none"/>
    </clipPath>
  </defs>
  <g id="Group_1090" data-name="Group 1090" transform="translate(6070 2486)">
    <g id="Rectangle_288" data-name="Rectangle 288" opacity="0">
      <rect id="Rectangle_288-2" data-name="Rectangle 288" width="83" height="83" transform="translate(-6070 -2486)" fill="#fff"/>
      <path id="Rectangle_288_-_Outline" data-name="Rectangle 288 - Outline" d="M1,1V82H82V1H1M0,0H83V83H0Z" transform="translate(-6070 -2486)" fill="#707070"/>
    </g>
    <g id="Group_1088" data-name="Group 1088" transform="translate(-6061 -2472)" clip-path="url(#clip-path)">
      <path id="Path_1127" data-name="Path 1127" d="M0,69.112c.825-1.777,1.461-3.63,2.177-5.451,1.595-4.05,3.165-8.111,4.747-12.167a2.118,2.118,0,0,1,2.408-1.662q4.329.006,8.658.02a5.228,5.228,0,0,0-.616,1.943,1.1,1.1,0,0,0-.891,1.007c-.14.665-.34,1.32-.528,1.976-.173.6-.136.637.511.665.33.015.692-.085.964.211a5.226,5.226,0,0,1,.089,1.892c-.489.328-1.039.153-1.562.179-.761.037-.816.06-1,.8-.24.933-.512,1.857-.752,2.79-.142.552-.065.66.5.665,1.67.016,3.34,0,5.009.01a.68.68,0,0,0,.761-.677,2.08,2.08,0,0,1,.372-1.267,2.3,2.3,0,0,1,1.979.138,1.3,1.3,0,0,1,.041.815c-.141.977-.141.979.873.98,1.388,0,2.776,0,4.164,0a3.071,3.071,0,0,1,.828.058,2.24,2.24,0,0,1,.655,2.14,1.93,1.93,0,0,1-.942.121c-1.752,0-3.5,0-5.255,0-.775,0-.841.056-.955.8-.181,1.182-.386,2.361-.556,3.545-.1.713-.056.776.674.778,2.606.007,5.212,0,7.819,0a3.964,3.964,0,0,1,.893.051.512.512,0,0,1,.321.2A4.165,4.165,0,0,0,33.159,71.2c.169.085.5.242.087.482-1.572.15-3.147.049-4.721.06-1.7.025-3.4.029-5.1,0-.658.019-1.316.021-1.974,0-1.7.025-3.4.028-5.1,0-.7.02-1.4.021-2.1,0q-2.49.038-4.98,0a4.615,4.615,0,0,1-1.967-.16c-1.554-.01-3.111-.077-4.662-.011A2.462,2.462,0,0,1,0,70.14Z" transform="translate(0 -43.401)" fill="#516788"/>
      <path id="Path_1128" data-name="Path 1128" d="M149.1,70.125a4.222,4.222,0,0,1-2.207-1.929.81.81,0,0,1-.351-.511c-.514-1.528-.978-3.071-1.445-4.614a.516.516,0,0,1,.012-.431,9.35,9.35,0,0,0-.637-1.933c-.294-.236-.3-.6-.406-.92-.251-.723-.444-.887-1.208-.9-1.282-.014-2.563-.008-3.845,0a.978.978,0,0,1-.562-.078,7.009,7.009,0,0,0-1.938-.062,2.721,2.721,0,0,1-2.679-1.1,1.75,1.75,0,0,1-.688-1.56,10.287,10.287,0,0,1-.131-1.925.829.829,0,0,1-.175-.6q-.02-1.31,0-2.621a.894.894,0,0,1,.177-.6c.007-.319.018-.637.021-.956a1.166,1.166,0,0,1,.639-.954c.47-.007.94-.021,1.409-.021l23.529,0c.256,0,.512-.012.768-.019a1.077,1.077,0,0,1,.728-.18c1.085,0,2.169-.023,3.254.012.713-.032,1.426-.011,2.139-.012a1.172,1.172,0,0,1,.72.177l3.714.043c.884.06,1.283.678,1.578,1.395.562,1.364,1.072,2.749,1.6,4.126,1.652,4.29,3.319,8.574,4.969,12.865a5.261,5.261,0,0,1,.327,1.038,1.86,1.86,0,0,1-1.537,2.262l-2.188.047a1.089,1.089,0,0,1-.228.119,2.887,2.887,0,0,1-.829.06q-11.718,0-23.436,0c-.374,0-.78.091-1.1-.221" transform="translate(-115.685 -41.986)" fill="#086eaa"/>
      <path id="Path_1129" data-name="Path 1129" d="M120.415,218.271a.218.218,0,0,1,.118,0q0,12.366,0,24.731a8.362,8.362,0,0,1-.169,1.458,1.88,1.88,0,0,1-1.712,1.413c-.192.014-.385,0-.578,0-8.629,0-17.26-.106-25.887.034-6.934.112-13.866.019-20.8.089-.247,0-.517.086-.739-.11.3-.3.68-.214,1.034-.214q8.729-.009,17.458,0c.192,0,.385,0,.577,0s.323-.068.274-.312a23.715,23.715,0,0,1-.126-4.158c-.045-1.719.181-1.529-1.556-1.543-.877-.007-1.755.017-2.631-.012-.268-.009-.625.1-.743-.309.256-.263.592-.209.906-.212,1.09-.011,2.179,0,3.269-.007.675-.007.744-.07.746-.732q.012-3.942,0-7.884c0-.665-.072-.728-.744-.737-1.09-.014-2.179,0-3.269-.007a1.59,1.59,0,0,1-.873-.14.163.163,0,0,1-.049-.213,1.273,1.273,0,0,1,.86-.175c1.112-.008,2.223.005,3.335-.006.676-.007.732-.069.747-.732.012-.556-.011-1.111.013-1.668-.038-1.917-.014-3.833-.012-5.749a1.058,1.058,0,0,1,.166-.67,2.021,2.021,0,0,1,1.247-.18q13.586-.008,27.172,0h.45c1.422.005,1.292-.013,1.3-1.237a.893.893,0,0,1,.22-.714" transform="translate(-61.53 -190.092)" fill="#eff1db"/>
      <path id="Path_1130" data-name="Path 1130" d="M71.809,380.02c.192.208.443.116.667.117,1.284.009,2.567.023,3.85-.005.469-.01.638.114.626.607-.031,1.368-.006,2.738-.013,4.107a1.967,1.967,0,0,0,.552,1.741H57.527a1.99,1.99,0,0,1-1.886-2.054,18.92,18.92,0,0,1,.09-3.959c.2-.581.7-.659,1.212-.722a6.913,6.913,0,0,1,.816-.021q2.448-.041,4.9,0,1.044-.03,2.088,0c1.689-.023,3.377-.03,5.066,0a6.688,6.688,0,0,1,1.912.106l.088.084" transform="translate(-48.407 -330.785)" fill="#f9c067"/>
      <path id="Path_1131" data-name="Path 1131" d="M427.251,71.479c1.4-.709,1.719-1.471,1.147-2.975-1.265-3.331-2.565-6.649-3.849-9.974q-1.36-3.523-2.711-7.051a2.511,2.511,0,0,0-1.527-1.686c.855-.007,1.71,0,2.565-.025a1.989,1.989,0,0,1,2.048,1.423q.828,2.113,1.644,4.231,2.5,6.471,5,12.944a3.142,3.142,0,0,1,.306,1.3,1.886,1.886,0,0,1-1.8,1.826c-.94.025-1.881,0-2.822-.009" transform="translate(-366.06 -43.344)" fill="#0d5a87"/>
      <path id="Path_1132" data-name="Path 1132" d="M324.555,3.6c-.512,0-1.025-.019-1.537-.011-.372.006-.549-.139-.543-.528.013-.833.016-1.666,0-2.5-.009-.415.158-.566.569-.564,2.434.016,4.869.016,7.3.022.32.177.306.493.31.789a19.44,19.44,0,0,1-.017,2.052c-.032.35.053.445.4.425.555-.032,1.112-.017,1.667-.006a.913.913,0,0,1,.719.2c-.657.294-1.353.041-2.024.145a2.893,2.893,0,0,1-1.538.181,12.323,12.323,0,0,1-1.321-.01c-1.088.033-2.176.012-3.264.011a.981.981,0,0,1-.72-.2" transform="translate(-280.85 0)" fill="#086eaa"/>
      <path id="Path_1133" data-name="Path 1133" d="M57.781,297.19c-.681.019-1.388-.049-1.9.552,0-2.2-.04-4.4-.005-6.6.03-1.922-.12-3.838-.109-5.758,0-.229-.066-.473.1-.681l.086.075a3.95,3.95,0,0,1,.118,1.641c0,.485.169.7.67.687.391-.007.819-.109,1.153.224a1.921,1.921,0,0,1,.129.943q.005,3.945,0,7.891c0,.356.065.737-.237,1.028" transform="translate(-48.558 -247.953)" fill="#aabed4"/>
      <path id="Path_1134" data-name="Path 1134" d="M56.6,218.218l1.954-.019a1.158,1.158,0,0,1,.2.854q.008,3.47,0,6.94a1.378,1.378,0,0,1-.154.808,2.233,2.233,0,0,1-1.975,0l-.025-.022q0-4.282,0-8.565" transform="translate(-49.298 -190.035)" fill="#aabfd4"/>
      <path id="Path_1135" data-name="Path 1135" d="M338.551,27.9l3.981,0a4.008,4.008,0,0,1-.017,2.8l-3.971,0q0-1.4.007-2.809" transform="translate(-294.847 -24.3)" fill="#eff1db"/>
      <path id="Path_1136" data-name="Path 1136" d="M386.537,3.514c-.833,0-1.667-.014-2.5.01-.366.01-.483-.046-.483-.474a11.936,11.936,0,0,0-.095-2.991Q384.8.05,386.138.042c.213,0,.5-.015.5.263a13.439,13.439,0,0,1-.1,3.209" transform="translate(-333.966 -0.036)" fill="#0d5a87"/>
      <path id="Path_1137" data-name="Path 1137" d="M369.311,30.725q.008-1.4.017-2.8l2.862.019q0,1.391-.01,2.783h-2.869" transform="translate(-321.642 -24.318)" fill="#cbc4a8"/>
      <path id="Path_1138" data-name="Path 1138" d="M249.829,218.041c0,.578-.016,1.155-.008,1.733,0,.3-.109.442-.413.42-.085-.006-.171,0-.257,0H219.814c-.107,0-.214-.007-.321-.01a2.534,2.534,0,0,1-.024-2.149l4.888-.034q9.817.008,19.634.017c1.946,0,3.892.015,5.838.024" transform="translate(-190.944 -189.863)" fill="#cbc4a8"/>
      <path id="Path_1139" data-name="Path 1139" d="M15.04,165.551c.58-1.5,1.137-2.95,1.7-4.4.453-1.167.455-1.167,1.7-1.167,1.731,0,3.462.019,5.193-.011.564-.01.75.068.566.7-.443,1.513-.815,3.047-1.191,4.579a.328.328,0,0,1-.387.3c-2.5,0-5,0-7.574,0" transform="translate(-13.099 -139.326)" fill="#fefefe"/>
      <path id="Path_1140" data-name="Path 1140" d="M95.4,165.591c-1.113,0-2.226-.011-3.339.007-.358.006-.447-.09-.349-.441.441-1.584.867-3.173,1.29-4.762a.431.431,0,0,1,.491-.373q3.082.017,6.164,0c.327,0,.407.126.36.424-.255,1.626-.511,3.251-.745,4.88-.05.35-.278.261-.469.262-1.134.006-2.269,0-3.4,0" transform="translate(-79.843 -139.366)" fill="#fefefe"/>
      <path id="Path_1141" data-name="Path 1141" d="M41.639,113.914c-.985,0-1.97-.006-2.954,0-.307,0-.5,0-.333-.411q.783-1.93,1.512-3.882c.107-.286.279-.328.536-.327,1.841.005,3.682.012,5.523,0,.433,0,.429.157.331.5-.344,1.212-.666,2.432-.977,3.653a.529.529,0,0,1-.619.473c-1.005-.027-2.012-.009-3.018-.009" transform="translate(-33.349 -95.187)" fill="#fefefe"/>
      <path id="Path_1142" data-name="Path 1142" d="M111.137,109.284a3.547,3.547,0,0,0,3.368,2.655c-.029.19-.055.38-.088.569-.246,1.4-.247,1.4-1.693,1.4-1.538,0-3.075-.015-4.612.009-.482.007-.651-.08-.494-.606.354-1.184.663-2.381.967-3.579.083-.327.224-.456.568-.444.661.022,1.324,0,1.986,0" transform="translate(-93.677 -95.177)" fill="#fefefe"/>
      <path id="Path_1143" data-name="Path 1143" d="M61.072,68.55c-.876,0-1.751-.011-2.626.005-.367.007-.442-.086-.3-.438.411-1.006.8-2.022,1.181-3.039a.467.467,0,0,1,.51-.359c1.623.014,3.245.018,4.868,0,.424,0,.444.147.344.493-.273.941-.536,1.886-.766,2.838a.551.551,0,0,1-.651.509c-.853-.029-1.708-.009-2.562-.009" transform="translate(-50.583 -56.366)" fill="#fefefe"/>
      <path id="Path_1144" data-name="Path 1144" d="M110.511,226.788q-.014-4.3-.028-8.592h2.069q-.015,4.3-.03,8.592a2.208,2.208,0,0,1-2.011,0" transform="translate(-96.222 -190.032)" fill="#aabfd4"/>
      <path id="Path_1145" data-name="Path 1145" d="M168.167,218.244q0,4.29-.007,8.579a2.007,2.007,0,0,1-1.932,0q-.006-4.292-.013-8.584l1.952,0" transform="translate(-144.761 -190.072)" fill="#a9bed4"/>
      <path id="Path_1146" data-name="Path 1146" d="M174.761,129.7a30.381,30.381,0,0,1,3.816-.072c1.907-.019,1.59-.165,2.168,1.655a1.629,1.629,0,0,1,.036.314c-1.917,0-3.835-.009-5.752.016-.484.006-.581-.133-.461-.587a11.238,11.238,0,0,0,.193-1.325" transform="translate(-151.996 -112.873)" fill="#fdfdfd"/>
      <path id="Path_1147" data-name="Path 1147" d="M122.773,64.732q0,1.91,0,3.82c-.446,0-.893-.018-1.338.01-.385.025-.413-.122-.321-.445.283-1,.561-2,.8-3.01.132-.554.54-.328.859-.374" transform="translate(-105.442 -56.37)" fill="#fdfdfd"/>
      <path id="Path_1148" data-name="Path 1148" d="M308.636,275.393c0-2.779,0-5.558-.019-8.337,0-.465.182-.584.607-.582q3.88.017,7.76,0c.483,0,.627.183.624.645-.019,2.758-.016,5.515-.021,8.273a1.054,1.054,0,0,1-.845.212q-3.63.011-7.259,0a1.068,1.068,0,0,1-.847-.209" transform="translate(-268.782 -232.077)" fill="#0d5a87"/>
      <path id="Path_1149" data-name="Path 1149" d="M70.694,284.736h1.932l5.13.034c0,.66-.029,1.322.016,1.979.034.5-.164.6-.622.593-1.51-.013-3.02.019-4.531.033a5.347,5.347,0,0,1-1.948.133q-2.548.038-5.095,0-1.051.03-2.1,0c-1.442.037-2.885.01-4.327.014a1.269,1.269,0,0,1-.676-.143c-.511-.014-1.022-.039-1.534-.036-.3,0-.422-.115-.414-.416.02-.725.024-1.45.035-2.175l1.9-.014h7.068l5.167,0" transform="translate(-49.227 -247.983)" fill="#f8a94b"/>
      <path id="Path_1150" data-name="Path 1150" d="M291.282,335.57l8.951,0c.62.005,1.241.028,1.861.011.555-.015.771.232.752.775-.023.662-.033,1.328,0,1.989.031.6-.245.814-.8.811-.813-.006-1.626,0-2.439,0q-4.943,0-9.885,0c-.958,0-1.035-.078-1.036-1.007,0-.578,0-1.155,0-1.733,0-.758.07-.822.857-.829l1.733-.014" transform="translate(-251.429 -292.254)" fill="#086eaa"/>
      <path id="Path_1151" data-name="Path 1151" d="M166.838,304.985q-.011,4.879-.022,9.759h-1.923a1.174,1.174,0,0,1-.211-.849q-.006-4.07,0-8.139a1.1,1.1,0,0,1,.2-.848,9.713,9.713,0,0,1,1.931-.01.248.248,0,0,0,.023.086" transform="translate(-143.422 -265.507)" fill="#a9bed4"/>
      <path id="Path_1152" data-name="Path 1152" d="M110.622,314.738q-.011-4.919-.022-9.838a10.069,10.069,0,0,1,2.037,0q-.011,4.919-.022,9.838h-1.994" transform="translate(-96.324 -265.501)" fill="#aabfd4"/>
    </g>
  </g>
</svg>
