<svg id="Group_577" data-name="Group 577" xmlns="http://www.w3.org/2000/svg" xmlns:xlink="http://www.w3.org/1999/xlink" width="102.144" height="67.664" viewBox="0 0 102.144 67.664">
  <defs>
    <linearGradient id="linear-gradient" x1="11.057" y1="-10.255" x2="10.022" y2="-10.483" gradientUnits="objectBoundingBox">
      <stop offset="0" stop-color="#0d5a87"/>
      <stop offset="1" stop-color="#0d5a87"/>
    </linearGradient>
  </defs>
  <path id="Path_571" data-name="Path 571" d="M165.542,136.741,106,171.117a4.489,4.489,0,0,1-4.039.167L65.507,150.236c-1.036-.6-.905-1.642.29-2.332l59.541-34.375a4.489,4.489,0,0,1,4.039-.167l36.455,21.047C166.867,135.007,166.737,136.051,165.542,136.741Z" transform="translate(-64.597 -104.23)" fill="#fff" opacity="0.4"/>
  <path id="Path_572" data-name="Path 572" d="M164.464,140.42l-52.09,30.074a3.928,3.928,0,0,1-3.534.147L76.947,152.227c-.906-.523-.792-1.437.254-2.04l52.09-30.074a3.926,3.926,0,0,1,3.534-.146l31.894,18.414C165.624,138.9,165.51,139.817,164.464,140.42Z" transform="translate(-69.76 -107.211)" fill="#041860" opacity="0.2"/>
  <path id="Path_573" data-name="Path 573" d="M103.545,171.726a3.788,3.788,0,0,1-1.859-.428L65.23,150.251a1.407,1.407,0,0,1-.8-1.2,1.868,1.868,0,0,1,1.095-1.5l59.54-34.376a4.725,4.725,0,0,1,4.25-.167l36.455,21.047a1.406,1.406,0,0,1,.8,1.2,1.869,1.869,0,0,1-1.094,1.5l-59.541,34.375A4.911,4.911,0,0,1,103.545,171.726ZM127.451,113a4.481,4.481,0,0,0-2.18.545l-59.54,34.375a1.478,1.478,0,0,0-.884,1.137,1.011,1.011,0,0,0,.593.831L101.9,170.934a4.268,4.268,0,0,0,3.829-.167l59.541-34.376a1.479,1.479,0,0,0,.883-1.137,1.009,1.009,0,0,0-.593-.831L129.1,113.376A3.369,3.369,0,0,0,127.451,113Z" transform="translate(-64.426 -104.062)" fill="#fff"/>
  <path id="Path_574" data-name="Path 574" d="M166.531,120.841l-.661.523c-.013-.008-.024-.017-.038-.025l-36.455-21.048a4.489,4.489,0,0,0-4.039.168L65.8,134.835a2.937,2.937,0,0,0-.374.256l-.614-.451v1.493l0,0a1.186,1.186,0,0,0,.7,1.036l36.455,21.048a4.489,4.489,0,0,0,4.039-.168l59.541-34.376a1.657,1.657,0,0,0,.987-1.321l0,0Z" transform="translate(-64.597 -98.376)" fill="#fff"/>
  <path id="Path_575" data-name="Path 575" d="M165.542,120.932,106,155.308a4.489,4.489,0,0,1-4.039.167L65.507,134.428c-1.036-.6-.905-1.642.29-2.332L125.337,97.72a4.489,4.489,0,0,1,4.039-.167L165.831,118.6C166.867,119.2,166.737,120.242,165.542,120.932Z" transform="translate(-64.597 -97.149)" fill="url(#linear-gradient)"/>
  <g id="Group_575" data-name="Group 575" transform="translate(48.821 6.524)">
    <path id="Path_576" data-name="Path 576" d="M157.978,124.6l-5.121-2.957,1.254-.724a4.1,4.1,0,0,1,.683-.321,2.85,2.85,0,0,1,.68-.15,2.127,2.127,0,0,1,.716.055,2.7,2.7,0,0,1,.729.3q.945.549.306,1.046a2.321,2.321,0,0,1,1.075-.162,2.737,2.737,0,0,1,1.1.372c.488.28.736.563.743.85s-.224.565-.693.837Zm-2.1-2.29.29-.167c.274-.158.4-.3.389-.428s-.161-.271-.438-.431a1.625,1.625,0,0,0-.4-.173.891.891,0,0,0-.374-.018,1.535,1.535,0,0,0-.358.1,4,4,0,0,0-.412.214l-.129.074Zm2.375,1.371.342-.2c.278-.16.405-.309.384-.446s-.183-.292-.482-.464a1.9,1.9,0,0,0-.852-.283,1.51,1.51,0,0,0-.816.23l-.293.169Z" transform="translate(-152.857 -114.106)" fill="#fff"/>
    <path id="Path_577" data-name="Path 577" d="M164.691,121.247l-4.08-3.557.973-.562,6.159,2.358-.868.5-1.4-.567-.886.511.979.808Zm-.608-1.724.686-.4-2.447-1.016Z" transform="translate(-156.33 -112.622)" fill="#fff"/>
    <path id="Path_578" data-name="Path 578" d="M170.286,117.223l-5.121-2.956.642-.371,4.154.951-2.9-1.674.773-.446,5.121,2.956-.611.353-4.316-1.029,3.049,1.76Z" transform="translate(-158.37 -110.65)" fill="#fff"/>
    <path id="Path_579" data-name="Path 579" d="M176.507,113.556l-5.122-2.956.934-.539,2.223,1.284-1.217-1.865.889-.513,1.313,1.889,3.909,1.009-.929.537-3.293-.881.148.3,2.076,1.2Z" transform="translate(-161.156 -108.966)" fill="#fff"/>
  </g>
  <g id="Group_576" data-name="Group 576" transform="translate(35.665 20.469)">
    <path id="Path_580" data-name="Path 580" d="M141.759,179l-11.413,6.589-1.321-.762,11.412-6.589Z" transform="translate(-129.026 -153.938)" fill="#fff"/>
    <path id="Path_581" data-name="Path 581" d="M167.168,164.328l-11.413,6.589-1.321-.763,11.413-6.589Z" transform="translate(-140.407 -147.368)" fill="#fff"/>
    <path id="Path_582" data-name="Path 582" d="M192.577,149.658l-11.413,6.589-1.321-.763,11.413-6.589Z" transform="translate(-151.788 -140.797)" fill="#fff"/>
    <path id="Path_583" data-name="Path 583" d="M217.986,134.988l-11.412,6.589-1.321-.763,11.413-6.589Z" transform="translate(-163.169 -134.226)" fill="#fff"/>
  </g>
</svg>
