<svg xmlns="http://www.w3.org/2000/svg" width="24.47" height="27.108" viewBox="0 0 24.47 27.108">
  <path id="Path_1010" data-name="Path 1010" d="M223.482,146.708a4.079,4.079,0,0,1-8.1,0h-5.541a2.639,2.639,0,1,1,0-5.278.241.241,0,0,0,.239-.241v-5.757a9.358,9.358,0,0,1,6.477-8.9v-.451a2.879,2.879,0,1,1,5.758,0v.451a9.359,9.359,0,0,1,6.477,8.9v5.757a.238.238,0,0,0,.239.241,2.639,2.639,0,1,1,0,5.278Zm-1.455,0h-5.191a2.64,2.64,0,0,0,5.191,0Zm-4.575-18.942a7.918,7.918,0,0,0-5.937,7.667v5.757a1.681,1.681,0,0,1-1.678,1.68,1.2,1.2,0,1,0,0,2.4h19.182a1.2,1.2,0,1,0,0-2.4,1.677,1.677,0,0,1-1.678-1.68v-5.757a7.919,7.919,0,0,0-5.937-7.667l-.54-.139v-1.549a1.439,1.439,0,1,0-2.879,0v1.549Z" transform="translate(-207.197 -123.198)" fill="#fff"/>
</svg>
