<svg xmlns="http://www.w3.org/2000/svg" width="37.964" height="37.964" viewBox="0 0 37.964 37.964">
  <g id="Group_1373" data-name="Group 1373" transform="translate(2063.5 14611.716)">
    <g id="Group_1236" data-name="Group 1236" transform="translate(-3609 -15093.233)">
      <g id="noun_call_2349137" transform="translate(1554.363 490.365)">
        <path id="Path_358" data-name="Path 358" d="M5.789,2.667a3.319,3.319,0,0,0-.755.068,5.327,5.327,0,0,0-.721.2A3.248,3.248,0,0,0,3.187,4.3a3.9,3.9,0,0,0-.393.919l0,.008c-.034.119-.055.241-.077.362-.01.054-.026.108-.033.163-.012.091-.014.183-.02.274,0,.076-.016.154-.016.229v.013a4.667,4.667,0,0,0,.032.542,3.8,3.8,0,0,0,.138.611c.064.227.113.4.148.509.032.079.1.262.174.441.02.053.026.075.049.135.106.272.17.476.191.544A10.483,10.483,0,0,0,3.831,10.1a7.987,7.987,0,0,0,.427.8A13.546,13.546,0,0,0,5.6,12.674c.292.345.6.7.943,1.059a17.375,17.375,0,0,0,1.89,1.616c.309.234.616.453.919.641a9.224,9.224,0,0,0,1.037.546q.233.108.479.2c.119.047.228.1.351.146.064.021.226.084.509.191.106.04.14.051.223.08a1.956,1.956,0,0,0,.219.078c.04.014.125.044.153.054s.125.036.179.052a2.363,2.363,0,0,0,.326.131,1.274,1.274,0,0,1,.3.04l.05.013c.089.024.176.052.255.082H14a4.093,4.093,0,0,0,1.973-.53,2.843,2.843,0,0,0,1.294-1.125,2.541,2.541,0,0,0,.113-.327v0c.037-.119.073-.254.109-.39a3.67,3.67,0,0,0,.106-.746.844.844,0,0,0-.032-.272c-.005-.008-.045-.036-.057-.048a1.264,1.264,0,0,0-.282-.228l-.008.012c-.126-.083-.261-.171-.46-.28-.134-.068-.325-.2-.573-.339s-.474-.2-.679-.339-.386-.2-.564-.339a.908.908,0,0,1-.265-.2,3.147,3.147,0,0,1-.382-.2.478.478,0,0,0-.3-.068.794.794,0,0,0-.53.272c-.213.2-.408.475-.585.679a4.365,4.365,0,0,1-.562.679.721.721,0,0,1-.488.272A.39.39,0,0,1,11.583,14c-.092,0-.163-.068-.212-.068a.984.984,0,0,1-.255-.135c-.12-.068-.187-.136-.2-.136A11.729,11.729,0,0,1,8.42,11.832,11.361,11.361,0,0,1,6.573,9.321a1.276,1.276,0,0,1-.127-.2c-.071-.136-.12-.2-.148-.272-.021,0-.049-.067-.085-.2a.439.439,0,0,1-.053-.2.9.9,0,0,1,.3-.544c.205-.2.424-.339.658-.542a3.082,3.082,0,0,0,.659-.544c.205-.272.308-.407.308-.542a.838.838,0,0,0-.074-.339c-.05-.068-.127-.2-.233-.339-.1-.2-.159-.272-.18-.272-.106-.2-.217-.408-.33-.611s-.237-.407-.371-.679c-.134-.2-.24-.408-.318-.544a2.265,2.265,0,0,0-.562-.814Z" transform="translate(0 0)"/>
      </g>
      <g id="noun-close-2194865" transform="translate(1440.998 447.02)">
        <path id="Path_1131" data-name="Path 1131" d="M123.484,35a18.481,18.481,0,1,0,9.241,2.476A18.482,18.482,0,0,0,123.484,35Zm0,35.644a17.162,17.162,0,1,1,12.136-5.027A17.163,17.163,0,0,1,123.484,70.642Z" transform="translate(0 0)"/>
        <path id="Path_1131_-_Outline" data-name="Path 1131 - Outline" d="M123.484,34.5a18.941,18.941,0,1,1-1.226.039l-.042-.039Zm.071,1h-.07a17.851,17.851,0,1,0,.07,0Zm-.07.32a17.662,17.662,0,1,1-6.759,1.344A17.574,17.574,0,0,1,123.484,35.818Zm0,34.324a16.663,16.663,0,1,0-6.376-1.268A16.58,16.58,0,0,0,123.484,70.142Z" transform="translate(0 0)"/>
      </g>
    </g>
  </g>
</svg>
