<svg xmlns="http://www.w3.org/2000/svg" width="37.964" height="37.964" viewBox="0 0 37.964 37.964">
  <g id="Group_1298" data-name="Group 1298" transform="translate(-1546.242 -676.968)">
    <g id="Group_1297" data-name="Group 1297" transform="translate(0.742 134.45)">
      <g id="noun-close-2194865" transform="translate(1440.998 508.02)">
        <path id="Path_1131" data-name="Path 1131" d="M123.484,35a18.481,18.481,0,1,0,9.241,2.476A18.482,18.482,0,0,0,123.484,35Zm0,35.644a17.162,17.162,0,1,1,12.136-5.027A17.163,17.163,0,0,1,123.484,70.642Z" transform="translate(0 0)"/>
        <path id="Path_1131_-_Outline" data-name="Path 1131 - Outline" d="M123.484,34.5a18.941,18.941,0,1,1-1.226.039l-.042-.039Zm.071,1h-.07a17.851,17.851,0,1,0,.07,0Zm-.07.32a17.662,17.662,0,1,1-6.759,1.344A17.574,17.574,0,0,1,123.484,35.818Zm0,34.324a16.663,16.663,0,1,0-6.376-1.268A16.58,16.58,0,0,0,123.484,70.142Z" transform="translate(0 0)"/>
      </g>
    </g>
    <path id="Path_1137" data-name="Path 1137" d="M250.14,161.323V145.8c0-1.757-1.141-1.884-2.107-1.884-1.192,0-2.211.127-2.211,1.884v15.526c0,1.757,1.308,1.641,2.275,1.641C249.289,162.964,250.14,163.081,250.14,161.323Z" transform="translate(1312.729 542.555)" fill-rule="evenodd"/>
    <path id="Path_1138" data-name="Path 1138" d="M250.14,161.323V145.8c0-1.757-1.141-1.884-2.107-1.884-1.192,0-2.211.127-2.211,1.884v15.526c0,1.757,1.308,1.641,2.275,1.641C249.289,162.964,250.14,163.081,250.14,161.323Z" transform="translate(1320.729 542.555)" fill-rule="evenodd"/>
  </g>
</svg>
