<svg xmlns="http://www.w3.org/2000/svg" width="119.937" height="119.937" viewBox="0 0 119.937 119.937">
  <g id="Group_508" data-name="Group 508" transform="translate(-1.3 -1.3)">
    <g id="Group_504" data-name="Group 504" transform="translate(1.3 1.3)">
      <g id="Group_503" data-name="Group 503">
        <path id="Path_416" data-name="Path 416" d="M121.237,61.268A59.968,59.968,0,1,1,61.268,1.3,59.981,59.981,0,0,1,121.237,61.268Z" transform="translate(-1.3 -1.3)" fill="#4c5254"/>
        <path id="Path_417" data-name="Path 417" d="M95.076,10.3A59.946,59.946,0,0,1,10.3,95.076" transform="translate(7.28 7.28)" fill="#2f423f"/>
      </g>
    </g>
    <g id="Group_507" data-name="Group 507" transform="translate(35.875 37.828)">
      <g id="Group_505" data-name="Group 505">
        <path id="Path_418" data-name="Path 418" d="M36.58,61.8A5.171,5.171,0,0,1,31.5,66.881H24.079A5.171,5.171,0,0,1,19,61.8V25.079A5.171,5.171,0,0,1,24.079,20H31.5a5.171,5.171,0,0,1,5.079,5.079Z" transform="translate(-19 -20)" fill="#009cc6"/>
        <path id="Path_419" data-name="Path 419" d="M34.674,59.137c0,2.539-.977,4.883-3.125,4.883h-5.86A5.232,5.232,0,0,1,21,59.137V27.493A4.854,4.854,0,0,1,25.688,23h5.86c2.149,0,3.125,2.149,3.125,4.493Z" transform="translate(-17.093 -17.14)" fill="#3ac2f2"/>
      </g>
      <g id="Group_506" data-name="Group 506" transform="translate(33.207)">
        <path id="Path_420" data-name="Path 420" d="M53.58,61.8A5.171,5.171,0,0,1,48.5,66.881H41.079A5.171,5.171,0,0,1,36,61.8V25.079A5.171,5.171,0,0,1,41.079,20H48.5a5.171,5.171,0,0,1,5.079,5.079Z" transform="translate(-36 -20)" fill="#009cc6"/>
        <path id="Path_421" data-name="Path 421" d="M51.674,59.137c0,2.539-1.953,4.883-4.1,4.883h-5.86c-2.149,0-3.711-2.344-3.711-4.883V27.493C38,24.953,39.563,23,41.711,23h5.86a4.486,4.486,0,0,1,4.1,4.493Z" transform="translate(-34.093 -17.14)" fill="#3ac2f2"/>
      </g>
    </g>
  </g>
</svg>
