<svg id="noun_add_928257" xmlns="http://www.w3.org/2000/svg" width="23.461" height="23.461" viewBox="0 0 23.461 23.461">
  <g id="Group_280" data-name="Group 280" transform="translate(0)">
    <path id="Path_299" data-name="Path 299" d="M11.73,0a11.73,11.73,0,1,0,11.73,11.73A11.73,11.73,0,0,0,11.73,0Zm0,4.419c.158,0,.515.127.515.286v6.512h6.512c.158,0,.286.356.286.515s-.127.515-.286.515H12.245v6.512c0,.158-.356.286-.515.286s-.515-.127-.515-.286V12.245H4.7c-.158,0-.286-.356-.286-.515s.127-.515.286-.515h6.512V4.7C11.214,4.546,11.572,4.419,11.73,4.419Z" transform="translate(0)" fill="#0d6191"/>
  </g>
</svg>
