<svg xmlns="http://www.w3.org/2000/svg" width="35" height="35" viewBox="0 0 35 35">
  <g id="Group_1340" data-name="Group 1340" transform="translate(-362 -944)">
    <circle id="Ellipse_130" data-name="Ellipse 130" cx="17.5" cy="17.5" r="17.5" transform="translate(362 944)" fill="#fff"/>
    <path id="Ellipse_130_-_Outline" data-name="Ellipse 130 - Outline" d="M17.5,1A16.5,16.5,0,0,0,5.833,29.167,16.5,16.5,0,1,0,29.167,5.833,16.392,16.392,0,0,0,17.5,1m0-1A17.5,17.5,0,1,1,0,17.5,17.5,17.5,0,0,1,17.5,0Z" transform="translate(362 944)" fill="#d60000"/>
    <path id="Path_1592" data-name="Path 1592" d="M205.3,193.969l5.128-5.128-2.917-2.917-5.128,5.128-5.128-5.128-2.917,2.917,5.128,5.128L194.34,199.1l2.917,2.917,5.128-5.128,5.128,5.128,2.917-2.917Z" transform="translate(176.66 767.076)" fill="#d60000"/>
  </g>
</svg>
