<svg xmlns="http://www.w3.org/2000/svg" xmlns:xlink="http://www.w3.org/1999/xlink" width="28.049" height="28.049" viewBox="0 0 28.049 28.049">
  <defs>
    <linearGradient id="linear-gradient" x1="0.366" x2="0.634" y2="1" gradientUnits="objectBoundingBox">
      <stop offset="0" stop-color="#134c6c"/>
      <stop offset="1" stop-color="#0c5e8d"/>
    </linearGradient>
  </defs>
  <g id="Group_1047" data-name="Group 1047" transform="translate(-299 -136)">
    <g id="Button" transform="translate(299.492 136)">
      <path id="Ellipse_5" data-name="Ellipse 5" d="M14.025,0A14.025,14.025,0,1,1,0,14.025,14.025,14.025,0,0,1,14.025,0Z" transform="translate(-0.492)" fill="url(#linear-gradient)"/>
    </g>
    <path id="Path_1050" data-name="Path 1050" d="M84,119.853a1.29,1.29,0,0,1,.365-.894,1.269,1.269,0,0,1,1.788,0l3.828,3.815,3.828-3.828a1.264,1.264,0,0,1,1.788,1.788l-4.722,4.722a1.246,1.246,0,0,1-.894.365,1.3,1.3,0,0,1-.894-.365l-4.722-4.709a1.313,1.313,0,0,1-.365-.894Z" transform="translate(434.821 60.004) rotate(90)" fill="#fff"/>
  </g>
</svg>
