<svg xmlns="http://www.w3.org/2000/svg" width="18.429" height="17.305" viewBox="0 0 18.429 17.305">
  <g id="noun_attach_1755211" transform="translate(0.25 0.25)">
    <path id="Path_303" data-name="Path 303" d="M8.585,24.625a3.528,3.528,0,0,1-2.524-1.088h0A3.727,3.727,0,0,1,5,20.94H5a3.486,3.486,0,0,1,.972-2.434h0l.149-.153,8.964-9.219A4.315,4.315,0,0,1,18.193,7.82h0a4.661,4.661,0,0,1,3.341,1.43h0a4.932,4.932,0,0,1,1.394,3.434h0a4.582,4.582,0,0,1-1.275,3.2h0l-7.524,7.747-.564.576L12.45,23.059l8.088-8.317a2.908,2.908,0,0,0,.8-2.052h0A3.273,3.273,0,0,0,20.4,10.41h0a3.092,3.092,0,0,0-2.207-.96h0a2.751,2.751,0,0,0-1.992.835h0L7.237,19.505l-.149.153a1.823,1.823,0,0,0-.494,1.281h0a2.082,2.082,0,0,0,.6,1.446h0A1.966,1.966,0,0,0,8.585,23h0a1.717,1.717,0,0,0,1.247-.522h0l6.337-6.522.532-.546a.689.689,0,0,0,.2-.492h0a.837.837,0,0,0-.241-.584h0a.8.8,0,0,0-.57-.249h0a.657.657,0,0,0-.476.2h0L9.761,20.29l-1.12-1.151,5.843-6.012a2.213,2.213,0,0,1,1.594-.673h0a2.359,2.359,0,0,1,1.689.725h0a2.5,2.5,0,0,1,.705,1.737h0a2.357,2.357,0,0,1-.657,1.643h0l-.53.546-6.337,6.522a3.291,3.291,0,0,1-2.361,1h0Z" transform="translate(-5 -7.82)"/>
    <path id="Path_303_-_Outline" data-name="Path 303 - Outline" d="M8.584,24.875a3.8,3.8,0,0,1-2.7-1.165A3.955,3.955,0,0,1,4.75,20.94a3.716,3.716,0,0,1,1.042-2.608l.151-.155,8.964-9.219A4.589,4.589,0,0,1,18.185,7.57h.009a4.938,4.938,0,0,1,3.52,1.507,5.155,5.155,0,0,1,1.464,3.607,4.806,4.806,0,0,1-1.344,3.376l-7.525,7.748-.744.76L12.1,23.059l8.257-8.491a2.642,2.642,0,0,0,.726-1.873,3.009,3.009,0,0,0-.863-2.11A2.859,2.859,0,0,0,18.19,9.7h-.016a2.515,2.515,0,0,0-1.794.759L7.267,19.833a1.562,1.562,0,0,0-.423,1.1,1.824,1.824,0,0,0,.526,1.275,1.729,1.729,0,0,0,1.22.535H8.6A1.475,1.475,0,0,0,9.653,22.3l6.869-7.068a.443.443,0,0,0,.128-.315.584.584,0,0,0-.169-.411l0,0a.55.55,0,0,0-.391-.171.411.411,0,0,0-.294.123L9.761,20.649l-1.468-1.51L14.3,12.953a2.476,2.476,0,0,1,1.769-.749h.005a2.623,2.623,0,0,1,1.868.8,2.733,2.733,0,0,1,.775,1.91,2.593,2.593,0,0,1-.727,1.817l-.531.547L11.127,23.8a3.562,3.562,0,0,1-2.435,1.07l0,0Zm-.1-.5.106,0a3.057,3.057,0,0,0,2.177-.92l6.866-7.068a2.1,2.1,0,0,0,.587-1.468,2.237,2.237,0,0,0-.635-1.564,2.121,2.121,0,0,0-1.511-.649,1.975,1.975,0,0,0-1.413.6L8.99,19.139l.771.793,5.673-5.826a.912.912,0,0,1,.651-.275h.006a1.053,1.053,0,0,1,.748.325,1.081,1.081,0,0,1,.311.756.944.944,0,0,1-.271.669l-.531.544-6.336,6.522a1.977,1.977,0,0,1-1.412.6H8.583a2.23,2.23,0,0,1-1.573-.687,2.317,2.317,0,0,1-.667-1.617,2.06,2.06,0,0,1,.562-1.454l.153-.157,8.964-9.221a3.017,3.017,0,0,1,2.153-.91h.02a3.361,3.361,0,0,1,2.387,1.038,3.5,3.5,0,0,1,1,2.453,3.138,3.138,0,0,1-.865,2.224L12.8,23.059l.768.793.384-.392,7.523-7.746a4.308,4.308,0,0,0,1.2-3.027,4.66,4.66,0,0,0-1.324-3.262A4.436,4.436,0,0,0,18.192,8.07h-.007a4.086,4.086,0,0,0-2.92,1.237L6.151,18.68a3.218,3.218,0,0,0-.9,2.258,3.459,3.459,0,0,0,.991,2.424,3.3,3.3,0,0,0,2.244,1.01Z" transform="translate(-5 -7.82)" fill="#fff"/>
  </g>
</svg>
