<svg xmlns="http://www.w3.org/2000/svg" xmlns:xlink="http://www.w3.org/1999/xlink" width="83" height="83" viewBox="0 0 83 83">
  <defs>
    <clipPath id="clip-path">
      <rect id="Rectangle_244" data-name="Rectangle 244" width="66.011" height="56.101" fill="none"/>
    </clipPath>
  </defs>
  <g id="Group_1089" data-name="Group 1089" transform="translate(6204 2486)">
    <g id="Rectangle_287" data-name="Rectangle 287" opacity="0">
      <rect id="Rectangle_287-2" data-name="Rectangle 287" width="83" height="83" transform="translate(-6204 -2486)" fill="#fff"/>
      <path id="Rectangle_287_-_Outline" data-name="Rectangle 287 - Outline" d="M1,1V82H82V1H1M0,0H83V83H0Z" transform="translate(-6204 -2486)" fill="#707070"/>
    </g>
    <g id="Group_1087" data-name="Group 1087" transform="translate(-6473.088 -2681.953)">
      <g id="Group_1051" data-name="Group 1051" transform="translate(277.088 208.953)">
        <g id="Group_1050" data-name="Group 1050" clip-path="url(#clip-path)">
          <path id="Path_1052" data-name="Path 1052" d="M0,69.17c.827-1.783,1.465-3.641,2.184-5.467,1.6-4.063,3.175-8.135,4.761-12.2a2.124,2.124,0,0,1,2.416-1.667q4.342.006,8.684.02a5.244,5.244,0,0,0-.618,1.949,1.108,1.108,0,0,0-.893,1.01c-.141.667-.341,1.324-.529,1.982-.173.606-.136.639.513.667.331.015.694-.085.967.212a5.242,5.242,0,0,1,.09,1.9c-.49.329-1.042.154-1.567.179-.764.037-.818.06-1.008.8-.241.936-.513,1.863-.755,2.8-.143.554-.066.662.5.667,1.675.016,3.35,0,5.025.01a.682.682,0,0,0,.763-.679,2.086,2.086,0,0,1,.373-1.271,2.3,2.3,0,0,1,1.985.138,1.309,1.309,0,0,1,.041.818c-.142.98-.142.982.876.983,1.392,0,2.784,0,4.176,0a3.08,3.08,0,0,1,.831.058,2.247,2.247,0,0,1,.657,2.147,1.935,1.935,0,0,1-.945.121c-1.757,0-3.514,0-5.271,0-.777,0-.844.056-.958.8-.181,1.186-.387,2.368-.557,3.556-.1.715-.056.778.676.781,2.614.007,5.228,0,7.842,0a3.976,3.976,0,0,1,.9.051.514.514,0,0,1,.322.2,4.177,4.177,0,0,0,1.779,1.53c.17.085.5.243.088.483-1.577.15-3.157.049-4.735.06-1.706.025-3.412.029-5.117,0-.66.019-1.32.021-1.98,0-1.7.025-3.409.028-5.114,0-.7.02-1.4.021-2.1,0q-2.5.038-4.995,0a4.629,4.629,0,0,1-1.973-.161c-1.559-.01-3.12-.077-4.676-.011A2.47,2.47,0,0,1,0,70.2Z" transform="translate(0 -43.381)" fill="#6e6e6e"/>
          <path id="Path_1053" data-name="Path 1053" d="M149.148,70.191a4.235,4.235,0,0,1-2.214-1.935.813.813,0,0,1-.352-.512c-.515-1.532-.981-3.08-1.449-4.628a.518.518,0,0,1,.012-.433,9.378,9.378,0,0,0-.639-1.938c-.3-.237-.3-.606-.407-.923-.252-.725-.446-.89-1.212-.9-1.285-.014-2.571-.008-3.857,0a.981.981,0,0,1-.563-.079,7.03,7.03,0,0,0-1.944-.063,2.729,2.729,0,0,1-2.687-1.1,1.756,1.756,0,0,1-.691-1.564,10.318,10.318,0,0,1-.131-1.931.831.831,0,0,1-.175-.6q-.02-1.314,0-2.629a.9.9,0,0,1,.177-.6c.007-.32.018-.639.021-.959a1.169,1.169,0,0,1,.641-.957c.471-.007.942-.021,1.413-.021l23.6,0c.257,0,.514-.012.771-.019a1.081,1.081,0,0,1,.73-.181c1.088,0,2.176-.023,3.264.012.715-.032,1.43-.011,2.145-.012a1.176,1.176,0,0,1,.723.178l3.725.043c.887.06,1.286.68,1.583,1.4.564,1.368,1.075,2.757,1.607,4.138,1.657,4.3,3.329,8.6,4.984,12.9a5.277,5.277,0,0,1,.328,1.041,1.865,1.865,0,0,1-1.542,2.269l-2.194.047a1.091,1.091,0,0,1-.229.119,2.9,2.9,0,0,1-.832.06q-11.753,0-23.506,0c-.375,0-.782.091-1.1-.221" transform="translate(-115.633 -41.968)" fill="#c1c1c1"/>
          <path id="Path_1054" data-name="Path 1054" d="M120.565,218.271a.219.219,0,0,1,.119,0q0,12.4,0,24.806a8.386,8.386,0,0,1-.17,1.462,1.886,1.886,0,0,1-1.717,1.418c-.192.014-.386,0-.58,0-8.655,0-17.312-.106-25.965.034-6.955.112-13.907.019-20.861.09-.248,0-.519.086-.742-.11.3-.3.682-.214,1.037-.215q8.756-.009,17.511,0c.193,0,.386,0,.579,0s.324-.068.274-.313a23.787,23.787,0,0,1-.126-4.171c-.045-1.724.182-1.534-1.561-1.548-.88-.007-1.76.017-2.639-.012-.269-.009-.627.1-.745-.31.257-.264.594-.21.908-.213,1.093-.011,2.186,0,3.279-.008.677-.008.746-.07.748-.734q.012-3.954,0-7.908c0-.667-.072-.731-.747-.739-1.093-.014-2.186,0-3.279-.007a1.6,1.6,0,0,1-.876-.14.163.163,0,0,1-.049-.213,1.277,1.277,0,0,1,.862-.176c1.115-.008,2.23.005,3.345-.006.678-.007.734-.069.749-.734.012-.557-.011-1.115.013-1.673-.038-1.922-.015-3.844-.012-5.766a1.061,1.061,0,0,1,.166-.672,2.027,2.027,0,0,1,1.251-.18q13.627-.008,27.255,0h.451c1.426.005,1.3-.013,1.3-1.241a.9.9,0,0,1,.221-.716" transform="translate(-61.502 -190.007)" fill="#e5e5e5"/>
          <path id="Path_1056" data-name="Path 1056" d="M427.272,71.545c1.4-.711,1.724-1.475,1.151-2.984-1.269-3.341-2.573-6.669-3.86-10q-1.364-3.534-2.719-7.072a2.518,2.518,0,0,0-1.531-1.691c.858-.007,1.716,0,2.573-.025a2,2,0,0,1,2.054,1.427q.83,2.12,1.649,4.244,2.508,6.49,5.011,12.983a3.152,3.152,0,0,1,.306,1.3,1.892,1.892,0,0,1-1.8,1.831c-.943.025-1.887,0-2.83-.009" transform="translate(-365.896 -43.324)" fill="#6e6e6e"/>
          <path id="Path_1057" data-name="Path 1057" d="M324.561,3.612c-.514,0-1.028-.019-1.542-.011-.373.006-.55-.139-.544-.53.013-.835.016-1.671,0-2.506-.009-.416.159-.568.57-.565,2.442.016,4.883.016,7.325.022.321.178.307.494.311.791a19.5,19.5,0,0,1-.017,2.058c-.032.351.053.447.4.427.556-.032,1.115-.017,1.673-.006a.916.916,0,0,1,.722.2c-.659.295-1.357.041-2.03.146a2.9,2.9,0,0,1-1.543.182,12.36,12.36,0,0,1-1.325-.01c-1.091.033-2.182.012-3.274.011a.984.984,0,0,1-.723-.2" transform="translate(-280.725 0)" fill="#086eaa"/>
          <path id="Path_1058" data-name="Path 1058" d="M57.787,297.227c-.683.019-1.392-.049-1.906.554,0-2.207-.04-4.414-.005-6.621.031-1.928-.12-3.85-.109-5.776,0-.229-.066-.475.1-.683l.086.075a3.962,3.962,0,0,1,.119,1.646c0,.487.169.7.672.689.392-.007.822-.11,1.156.225a1.927,1.927,0,0,1,.129.946q.005,3.957,0,7.914c0,.357.065.74-.238,1.031" transform="translate(-48.536 -247.842)" fill="#a7a7a7"/>
          <path id="Path_1059" data-name="Path 1059" d="M56.6,218.218l1.96-.019a1.161,1.161,0,0,1,.2.856q.008,3.481,0,6.961a1.382,1.382,0,0,1-.155.81,2.24,2.24,0,0,1-1.981,0l-.025-.022q0-4.3,0-8.591" transform="translate(-49.276 -189.95)" fill="#a7a7a7"/>
          <path id="Path_1060" data-name="Path 1060" d="M338.551,27.9l3.993,0a4.02,4.02,0,0,1-.017,2.811l-3.983,0q0-1.409.007-2.817" transform="translate(-294.715 -24.289)" fill="#f8f8f8"/>
          <path id="Path_1061" data-name="Path 1061" d="M386.547,3.525c-.836,0-1.672-.014-2.507.01-.367.01-.485-.046-.484-.476a11.971,11.971,0,0,0-.095-3Q384.8.05,386.146.042c.214,0,.5-.015.5.264a13.48,13.48,0,0,1-.1,3.219" transform="translate(-333.816 -0.036)" fill="#0d5a87"/>
          <path id="Path_1062" data-name="Path 1062" d="M369.311,30.733q.008-1.406.017-2.811l2.871.019q0,1.4-.01,2.791h-2.878" transform="translate(-321.498 -24.307)" fill="#ededed"/>
          <path id="Path_1063" data-name="Path 1063" d="M249.921,218.042c0,.579-.016,1.159-.008,1.738,0,.3-.109.443-.414.421-.085-.006-.172,0-.257,0H219.816c-.107,0-.214-.007-.322-.01a2.542,2.542,0,0,1-.024-2.155l4.9-.034q9.847.008,19.693.017c1.952,0,3.9.016,5.855.024" transform="translate(-190.858 -189.778)" fill="#d3d3d3"/>
          <path id="Path_1064" data-name="Path 1064" d="M15.04,165.567c.581-1.507,1.14-2.959,1.7-4.411.454-1.171.456-1.17,1.7-1.17,1.736,0,3.473.019,5.209-.011.565-.01.752.069.568.7-.445,1.518-.817,3.056-1.194,4.593a.329.329,0,0,1-.388.3c-2.506,0-5.013,0-7.6,0" transform="translate(-13.093 -139.264)" fill="#fefefe"/>
          <path id="Path_1065" data-name="Path 1065" d="M95.413,165.608c-1.116,0-2.233-.012-3.349.007-.359.006-.449-.09-.35-.443.443-1.589.87-3.182,1.294-4.777a.432.432,0,0,1,.492-.374q3.091.017,6.182,0c.328,0,.408.126.361.425-.256,1.63-.513,3.261-.747,4.895-.05.351-.278.262-.471.263-1.138.006-2.276,0-3.413,0" transform="translate(-79.808 -139.304)" fill="#fefefe"/>
          <path id="Path_1066" data-name="Path 1066" d="M41.65,113.928c-.988,0-1.976-.006-2.963,0-.308,0-.5,0-.334-.412q.785-1.936,1.516-3.894c.107-.287.28-.329.538-.328,1.847.005,3.693.012,5.54,0,.434,0,.431.158.332.5-.345,1.216-.668,2.439-.98,3.664a.531.531,0,0,1-.621.474c-1.008-.027-2.018-.009-3.027-.009" transform="translate(-33.334 -95.144)" fill="#fefefe"/>
          <path id="Path_1067" data-name="Path 1067" d="M111.147,109.284a3.558,3.558,0,0,0,3.378,2.663c-.029.19-.055.381-.088.571-.247,1.4-.248,1.4-1.7,1.4-1.542,0-3.085-.015-4.626.009-.484.007-.653-.081-.5-.608.355-1.187.665-2.388.969-3.59.083-.328.225-.457.57-.445.663.022,1.328,0,1.992,0" transform="translate(-93.635 -95.134)" fill="#fefefe"/>
          <path id="Path_1068" data-name="Path 1068" d="M61.081,68.562c-.878,0-1.756-.011-2.634.005-.368.007-.443-.087-.3-.439.413-1.009.8-2.028,1.184-3.048a.469.469,0,0,1,.512-.36c1.628.014,3.255.018,4.883,0,.425,0,.446.148.345.494-.274.944-.537,1.892-.768,2.847a.553.553,0,0,1-.653.51c-.856-.029-1.713-.009-2.57-.009" transform="translate(-50.56 -56.34)" fill="#fefefe"/>
          <path id="Path_1069" data-name="Path 1069" d="M110.511,226.814q-.014-4.309-.028-8.618h2.076q-.015,4.309-.03,8.618a2.215,2.215,0,0,1-2.017,0" transform="translate(-96.179 -189.947)" fill="#a7a7a7"/>
          <path id="Path_1070" data-name="Path 1070" d="M168.173,218.244q0,4.3-.007,8.605a2.013,2.013,0,0,1-1.938,0q-.006-4.3-.013-8.61l1.958,0" transform="translate(-144.696 -189.987)" fill="#a7a7a7"/>
          <path id="Path_1071" data-name="Path 1071" d="M174.762,129.7a30.473,30.473,0,0,1,3.827-.072c1.913-.019,1.595-.165,2.175,1.66a1.633,1.633,0,0,1,.036.315c-1.923,0-3.847-.009-5.769.016-.486.006-.582-.133-.462-.589a11.273,11.273,0,0,0,.193-1.329" transform="translate(-151.927 -112.822)" fill="#fdfdfd"/>
          <path id="Path_1072" data-name="Path 1072" d="M122.778,64.732q0,1.916,0,3.831c-.447,0-.9-.018-1.342.01-.386.025-.414-.122-.322-.446.284-1,.562-2.006.8-3.019.133-.556.542-.329.861-.376" transform="translate(-105.395 -56.345)" fill="#fdfdfd"/>
          <path id="Path_1073" data-name="Path 1073" d="M308.636,275.42c0-2.788,0-5.575-.019-8.362,0-.466.182-.586.609-.584q3.892.017,7.784,0c.485,0,.629.183.626.647-.019,2.766-.016,5.532-.021,8.3a1.057,1.057,0,0,1-.848.212q-3.641.011-7.281,0a1.072,1.072,0,0,1-.849-.209" transform="translate(-268.662 -231.973)" fill="#0d5a87"/>
          <path id="Path_1074" data-name="Path 1074" d="M70.737,284.736h1.937l5.145.035c0,.662-.029,1.326.016,1.985.035.5-.165.6-.624.6-1.514-.013-3.029.019-4.544.033a5.363,5.363,0,0,1-1.953.133q-2.555.038-5.11,0-1.054.03-2.109,0c-1.447.037-2.894.01-4.34.014a1.272,1.272,0,0,1-.678-.143c-.513-.014-1.025-.039-1.538-.037-.3,0-.424-.115-.415-.417.02-.727.024-1.455.035-2.182l1.907-.014h7.089l5.182,0" transform="translate(-49.205 -247.872)" fill="#e2e2e2"/>
          <path id="Path_1075" data-name="Path 1075" d="M291.29,335.57l8.978,0c.622.005,1.245.029,1.866.011.557-.015.773.233.754.778-.023.664-.033,1.332,0,2,.032.6-.246.817-.8.813-.815-.006-1.631,0-2.446,0q-4.957,0-9.915,0c-.961,0-1.039-.078-1.039-1.01,0-.579,0-1.159,0-1.738,0-.761.071-.824.86-.831l1.738-.014" transform="translate(-251.316 -292.123)" fill="#086eaa"/>
          <path id="Path_1076" data-name="Path 1076" d="M166.844,304.985q-.011,4.894-.022,9.788h-1.929a1.177,1.177,0,0,1-.212-.852q-.006-4.082,0-8.164a1.1,1.1,0,0,1,.2-.85,9.734,9.734,0,0,1,1.937-.01.249.249,0,0,0,.023.086" transform="translate(-143.358 -265.388)" fill="#a7a7a7"/>
          <path id="Path_1077" data-name="Path 1077" d="M110.622,314.768q-.011-4.934-.022-9.868a10.106,10.106,0,0,1,2.043,0q-.011,4.934-.022,9.868h-2" transform="translate(-96.281 -265.382)" fill="#a7a7a7"/>
        </g>
      </g>
      <rect id="Rectangle_245" data-name="Rectangle 245" width="21.51" height="6.883" rx="1" transform="translate(283.896 258.037)" fill="#a7a7a7"/>
    </g>
  </g>
</svg>
