<svg xmlns="http://www.w3.org/2000/svg" width="37.964" height="37.964" viewBox="0 0 37.964 37.964">
  <g id="Group_1374" data-name="Group 1374" transform="translate(2063.5 14540.716)">
    <g id="Group_1237" data-name="Group 1237" transform="translate(-3609 -15083.233)">
      <g id="noun-close-2194865" transform="translate(1440.998 508.02)">
        <path id="Path_1131" data-name="Path 1131" d="M123.484,35a18.481,18.481,0,1,0,9.241,2.476A18.482,18.482,0,0,0,123.484,35Zm0,35.644a17.162,17.162,0,1,1,12.136-5.027A17.163,17.163,0,0,1,123.484,70.642Z" transform="translate(0 0)"/>
        <path id="Path_1131_-_Outline" data-name="Path 1131 - Outline" d="M123.484,34.5a18.941,18.941,0,1,1-1.226.039l-.042-.039Zm.071,1h-.07a17.851,17.851,0,1,0,.07,0Zm-.07.32a17.662,17.662,0,1,1-6.759,1.344A17.574,17.574,0,0,1,123.484,35.818Zm0,34.324a16.663,16.663,0,1,0-6.376-1.268A16.58,16.58,0,0,0,123.484,70.142Z" transform="translate(0 0)"/>
        <path id="Path_1132" data-name="Path 1132" d="M263.271,180.07l-5.663,5.677-5.663-5.677-1.875,1.875,5.677,5.663-5.677,5.663,1.875,1.875,5.663-5.677,5.663,5.677,1.875-1.875-5.677-5.663,5.677-5.663Z" transform="translate(-134.125 -134.128)"/>
      </g>
    </g>
  </g>
</svg>
