<svg xmlns="http://www.w3.org/2000/svg" xmlns:xlink="http://www.w3.org/1999/xlink" width="243.711" height="228.32" viewBox="0 0 243.711 228.32">
  <defs>
    <clipPath id="clip-path">
      <rect id="Rectangle_317" data-name="Rectangle 317" width="119" height="174.699" fill="none"/>
    </clipPath>
    <clipPath id="clip-path-3">
      <rect id="Rectangle_315" data-name="Rectangle 315" width="39.424" height="20.537" fill="none"/>
    </clipPath>
  </defs>
  <g id="Group_1494" data-name="Group 1494" transform="translate(-79 -72)">
    <path id="Path_1791" data-name="Path 1791" d="M366.931,610.492c7.836,8.8,4.082,40.735-13.964,45.5S308.639,710.8,357.7,738.766s92.093-11.619,113.484-5.237,68.787,18.218,87.745-39.049,26.41-114.176-24.674-149.762c-46.687-32.523-89.206,3.385-126.33-18.293C370.969,504.843,308.674,545.088,366.931,610.492Z" transform="translate(-250.558 -448.563)" fill="#def3ff" opacity="0.376"/>
    <g id="Group_1493" data-name="Group 1493" transform="translate(142 98)">
      <g id="Group_1492" data-name="Group 1492" clip-path="url(#clip-path)">
        <g id="Group_1491" data-name="Group 1491">
          <g id="Group_1490" data-name="Group 1490" clip-path="url(#clip-path)">
            <path id="Path_1792" data-name="Path 1792" d="M81.608,174.7l-62.286-.035c-7.491,0-13.562-5.793-13.56-12.932l.03-148.805C5.794,5.784,11.873,0,19.368,0L81.655.035c7.491,0,13.561,5.793,13.56,12.932l-.031,148.805c0,7.143-6.08,12.932-13.575,12.927" transform="translate(-2.886 0)" fill="#263238"/>
            <path id="Path_1793" data-name="Path 1793" d="M85.729,10.578l-12.076-.006a2.925,2.925,0,0,0-2.932,2.919v2.088A2.925,2.925,0,0,1,67.786,18.5l-23.539-.013a2.929,2.929,0,0,1-2.932-2.923V13.474a2.928,2.928,0,0,0-2.932-2.923l-4.247,0-10.569-.006A9.288,9.288,0,0,0,14.059,19.6L14.03,164.841a9.286,9.286,0,0,0,9.5,9.057l62.162.034a9.287,9.287,0,0,0,9.507-9.053l.03-145.245a9.286,9.286,0,0,0-9.5-9.057" transform="translate(-7.026 -5.28)" fill="#fff"/>
            <path id="Path_1794" data-name="Path 1794" d="M70.257,67.139a3.545,3.545,0,0,0,.178-7.052,3.688,3.688,0,0,0-4.327-5.5,4.414,4.414,0,0,0-7.217-2.3,4.963,4.963,0,0,0-6.024,1.029,3.529,3.529,0,0,0-1.933,6.467" transform="translate(-24.724 -25.635)" fill="#263238"/>
            <path id="Path_1795" data-name="Path 1795" d="M64.785,72.838A15.04,15.04,0,0,0,47.47,62.055L46.7,62.2c-8.158,2.052-10.973,10.128-8.7,18.226l5.709,29.4L60.526,122.8l4.351-10.83-1.713-9.786s7.7-2.743,6.285-10.692c-.682-3.838-2.729-11.629-4.664-18.658" transform="translate(-18.654 -30.942)" fill="#ffc09d"/>
            <path id="Path_1796" data-name="Path 1796" d="M78.284,141.6a19.582,19.582,0,0,1-10.969-1.063s3.437,5.416,11.213,3.2Z" transform="translate(-33.711 -70.381)" fill="#ff9b6c"/>
            <path id="Path_1797" data-name="Path 1797" d="M88.722,98.328a1.152,1.152,0,0,1-.874,1.35,1.1,1.1,0,0,1-1.362-.8,1.153,1.153,0,0,1,.873-1.351,1.1,1.1,0,0,1,1.363.8" transform="translate(-43.298 -48.824)" fill="#263238"/>
            <path id="Path_1798" data-name="Path 1798" d="M85.969,91.518c-.112.174-1.091-.3-2.309-.062-1.22.217-1.995,1.014-2.156.891-.077-.054.015-.348.35-.705a3.165,3.165,0,0,1,1.691-.9,3.036,3.036,0,0,1,1.873.234c.43.216.608.459.551.539" transform="translate(-40.804 -45.418)" fill="#263238"/>
            <path id="Path_1799" data-name="Path 1799" d="M66.577,103.013a1.152,1.152,0,0,1-.875,1.35,1.1,1.1,0,0,1-1.362-.8,1.153,1.153,0,0,1,.874-1.35,1.1,1.1,0,0,1,1.363.8" transform="translate(-32.208 -51.17)" fill="#263238"/>
            <path id="Path_1800" data-name="Path 1800" d="M62.061,96.541c-.112.175-1.092-.3-2.309-.061-1.22.217-1.995,1.014-2.156.89-.077-.053.013-.347.35-.7a3.161,3.161,0,0,1,1.691-.9A3.039,3.039,0,0,1,61.51,96c.428.216.607.459.551.538" transform="translate(-28.831 -47.934)" fill="#263238"/>
            <path id="Path_1801" data-name="Path 1801" d="M76.365,103.7a8.179,8.179,0,0,1,1.911-.734c.305-.091.588-.209.6-.432a1.614,1.614,0,0,0-.383-.883l-1.371-2.195a41.356,41.356,0,0,1-3.246-5.8,41.574,41.574,0,0,1,3.706,5.53q.7,1.16,1.335,2.215a1.831,1.831,0,0,1,.394,1.191.8.8,0,0,1-.425.553,2.17,2.17,0,0,1-.515.174,8.111,8.111,0,0,1-2.005.385" transform="translate(-36.992 -46.902)" fill="#263238"/>
            <path id="Path_1802" data-name="Path 1802" d="M60.671,88.031c-.1.339-1.21.2-2.5.407-1.3.174-2.336.623-2.515.323-.079-.143.1-.464.512-.8a3.927,3.927,0,0,1,1.852-.773,3.784,3.784,0,0,1,1.97.217c.481.2.727.465.683.626" transform="translate(-27.861 -43.642)" fill="#263238"/>
            <path id="Path_1803" data-name="Path 1803" d="M84.092,82.787c-.2.325-1.264.23-2.477.446-1.218.182-2.2.612-2.489.367-.13-.121-.022-.429.376-.776a4,4,0,0,1,1.923-.836,3.94,3.94,0,0,1,2.078.181c.482.2.676.461.589.618" transform="translate(-39.6 -41.029)" fill="#263238"/>
            <path id="Path_1804" data-name="Path 1804" d="M39.1,112.378a2.191,2.191,0,0,0-2.719-1.632c-1.452.422-2.938,1.576-2.259,4.613,1.206,5.388,6.366,3.067,6.341,2.91-.017-.106-.839-3.641-1.363-5.891" transform="translate(-17.006 -55.419)" fill="#ffc09d"/>
            <path id="Path_1805" data-name="Path 1805" d="M40.8,118.3c-.027-.012-.079.087-.222.2a.961.961,0,0,1-.7.171,2.379,2.379,0,0,1-1.541-1.844,3.177,3.177,0,0,1-.038-1.4,1.111,1.111,0,0,1,.545-.878.49.49,0,0,1,.612.133c.106.135.1.25.126.253s.1-.116,0-.329a.614.614,0,0,0-.288-.29.724.724,0,0,0-.55-.021,1.351,1.351,0,0,0-.794,1.054,3.271,3.271,0,0,0,.01,1.575,2.5,2.5,0,0,0,1.89,2.021,1.03,1.03,0,0,0,.826-.334c.137-.171.139-.3.118-.3" transform="translate(-18.961 -57.211)" fill="#ff9b6c"/>
            <path id="Path_1806" data-name="Path 1806" d="M53.7,59.527a2.041,2.041,0,0,0-.263-.35,3.556,3.556,0,0,0-2.991-1.024,13.682,13.682,0,0,0-2.052-.436A4.806,4.806,0,0,0,40.314,58.9c-.216.074-.431.154-.646.236a4.908,4.908,0,0,0-6.933,3.469,3.563,3.563,0,0,0-2.978,5.843,3.386,3.386,0,0,0-1.325,3,1.971,1.971,0,0,0,2.339,1.593,72.953,72.953,0,0,0,1.815,8.312c.457,1.881,3.089,2.548,3.5,3.806,2.1,6.418,3.555,2.372,1.789-11.4.117-.132.234-.271.35-.425a7.633,7.633,0,0,0,.434-.988c.23-.4.8-.4,1.26-.437a3.522,3.522,0,0,0,3.12-3.164,1.479,1.479,0,0,0,1.983-.188,7.917,7.917,0,0,0,1.176-1.86,2.271,2.271,0,0,1,1.684-1.285,5.438,5.438,0,0,0,1.229.035c.7-.2.889-1.1.862-1.826a3.366,3.366,0,0,1,.226-1.8,4.073,4.073,0,0,1,1.3-.655c.276-.021.559-.018.829-.029a2.553,2.553,0,0,0,.386-.049,3.992,3.992,0,0,1,.53.1c2.615.7,5.653,5.271,5.653,5.271a9.656,9.656,0,0,0-5.2-6.928" transform="translate(-14.221 -28.051)" fill="#263238"/>
            <path id="Path_1807" data-name="Path 1807" d="M29.818,73.267s.008-.032.035-.088a2.582,2.582,0,0,1,.132-.246,3.025,3.025,0,0,1,.729-.776,3.5,3.5,0,0,1,1.54-.65,3.224,3.224,0,0,1,2.156.369l-.138.073A4.362,4.362,0,0,1,36,68.81a5.51,5.51,0,0,1,1.832-.964A6.7,6.7,0,0,1,40,67.59a11.025,11.025,0,0,1,3.956,1.016l-.15.079a4.918,4.918,0,0,1,1.958-3.029,4.757,4.757,0,0,1,4.557-.5,3.328,3.328,0,0,1,.448.223.6.6,0,0,1,.143.1c-.008.015-.213-.1-.618-.253a4.94,4.94,0,0,0-1.812-.295,4.625,4.625,0,0,0-2.612.88,4.764,4.764,0,0,0-1.853,2.92l-.025.133-.124-.054a10.964,10.964,0,0,0-3.878-.986,6.518,6.518,0,0,0-2.1.243,5.324,5.324,0,0,0-1.762.917,4.2,4.2,0,0,0-1.678,2.981l-.007.151-.13-.077a3.094,3.094,0,0,0-2.039-.38,3.479,3.479,0,0,0-1.5.589,3.724,3.724,0,0,0-.957,1.026" transform="translate(-14.932 -32.446)" fill="#455a64"/>
            <path id="Path_1808" data-name="Path 1808" d="M50.158,66.912a1.271,1.271,0,0,1-.053.228,4.544,4.544,0,0,0-.086.665c-.018.293-.019.654-.033,1.078a3.429,3.429,0,0,1-.277,1.435,1.141,1.141,0,0,1-.685.551,4.088,4.088,0,0,1-.933.116,1.855,1.855,0,0,0-.909.242,2.483,2.483,0,0,0-.672.762c-.191.3-.361.639-.547.975a3.879,3.879,0,0,1-.647,1.02,2.577,2.577,0,0,1-1.112.624,2.047,2.047,0,0,1-.664.082.945.945,0,0,1-.655-.284l.193-.07a3.374,3.374,0,0,1-.188.983,3.286,3.286,0,0,1-.514.892,3.805,3.805,0,0,1-1.747,1.16,4.6,4.6,0,0,1-.862.2,1.866,1.866,0,0,0-.788.151,1.133,1.133,0,0,0-.495.571,5.518,5.518,0,0,1-.437.716A4.332,4.332,0,0,1,35.5,80.844a3.975,3.975,0,0,1-2.751-.607A4.113,4.113,0,0,1,31.175,78.4l.1.041a2.173,2.173,0,0,1-1.844-.087,2.1,2.1,0,0,1-1.088-1.9,1.516,1.516,0,0,1,.025-.226q.015-.076.021-.075a2.392,2.392,0,0,0,.191,1.13,1.972,1.972,0,0,0,.908.961,2.051,2.051,0,0,0,1.725.053l.071-.031.031.072a3.976,3.976,0,0,0,1.534,1.742,3.8,3.8,0,0,0,2.612.56,4.145,4.145,0,0,0,2.4-1.762,5.438,5.438,0,0,0,.418-.69,1.357,1.357,0,0,1,.587-.667,1.236,1.236,0,0,1,.442-.141l.425-.036a4.381,4.381,0,0,0,.818-.186A3.6,3.6,0,0,0,42.2,76.068a3.075,3.075,0,0,0,.478-.826,3.146,3.146,0,0,0,.177-.912l.016-.262.177.192a1.112,1.112,0,0,0,1.1.141,2.375,2.375,0,0,0,1.024-.566,3.752,3.752,0,0,0,.617-.966c.189-.336.361-.67.562-.983a2.65,2.65,0,0,1,.735-.811,2.021,2.021,0,0,1,1-.259,4,4,0,0,0,.9-.1.991.991,0,0,0,.608-.472,3.389,3.389,0,0,0,.29-1.372c.024-.421.037-.784.068-1.079a3.7,3.7,0,0,1,.123-.669.946.946,0,0,1,.091-.218" transform="translate(-14.195 -33.509)" fill="#455a64"/>
            <path id="Path_1809" data-name="Path 1809" d="M72.03,119.5a3.029,3.029,0,0,0,1.828,3.446,2.178,2.178,0,0,0,2.729-1.445,3.925,3.925,0,0,0,.033-1.873c-1.292-.075-3.3-.054-4.591-.129" transform="translate(-36.05 -59.844)" fill="#ff9b6c"/>
            <path id="Path_1810" data-name="Path 1810" d="M76.214,121.882c.007.005-.011.041-.055.105a1.373,1.373,0,0,1-.217.26,2.068,2.068,0,0,1-1.117.553,2.673,2.673,0,0,1-1.816-.367,2.816,2.816,0,0,1-1.221-1.9,2.893,2.893,0,0,1-.031-.611,1.3,1.3,0,0,1,.157-.606.531.531,0,0,1,.278-.218.953.953,0,0,1,.308-.039l.529.016c.687.033,1.3.1,1.813.154,1.025.112,1.661.142,1.662.179a7.172,7.172,0,0,1-1.676,0c-.516-.028-1.129-.077-1.807-.1l-.519-.007c-.176,0-.3.028-.373.148a1.09,1.09,0,0,0-.113.483,2.681,2.681,0,0,0,.029.553,2.629,2.629,0,0,0,1.1,1.743,2.559,2.559,0,0,0,1.659.386,2.13,2.13,0,0,0,1.076-.447c.224-.174.317-.307.339-.29" transform="translate(-35.933 -59.623)" fill="#263238"/>
            <path id="Path_1811" data-name="Path 1811" d="M141.078,63.617s6.324-.786,15.833-8.349,14.654-18.309,15.716-18.155,5.926-1.57,12.971,18.544,3.133,24.261,1.373,24.058-13.42-4.668-20.979-4.522-17.54,3.138-17.54,3.138Z" transform="translate(-70.651 -18.585)" fill="#0d6191"/>
            <path id="Path_1812" data-name="Path 1812" d="M116.976,115.111l3.38-.721-1.829-4.445-2.857,1.424Z" transform="translate(-57.926 -55.059)" fill="#455a64"/>
            <path id="Path_1813" data-name="Path 1813" d="M118.684,97.048l1.249,3.755.777,1.89a5.268,5.268,0,0,0,6.618,2.967l13.715-3.856L135.15,84.437l-13.625,5.745a5.269,5.269,0,0,0-2.842,6.866" transform="translate(-59.237 -42.285)" fill="#263238"/>
            <path id="Path_1814" data-name="Path 1814" d="M128.929,117.8l4.594,8.146,2.1-.678,14.338,10.7,3.56-7.749s-8.343-3.189-9.98-6.049.086-3.6.086-3.6l-4.04-4.223Z" transform="translate(-64.566 -57.269)" fill="#263238"/>
            <path id="Path_1815" data-name="Path 1815" d="M216.36,56.486c3.733,10.887,4.819,20.378,2.427,21.2s-7.357-7.341-11.09-18.229-4.818-20.378-2.427-21.2,7.357,7.341,11.09,18.228" transform="translate(-102.162 -19.131)" fill="#263238"/>
            <path id="Path_1816" data-name="Path 1816" d="M209.935,67.84s5.7-2.832,7.96,4.721-3.517,8.215-3.517,8.215a48.674,48.674,0,0,1-4.442-12.936" transform="translate(-105.134 -33.713)" fill="#fafafa"/>
            <path id="Path_1817" data-name="Path 1817" d="M200.087,49.913a8.172,8.172,0,0,0,.08,1.41c.087.905.206,2.218.4,3.835.154.8.323,1.677.5,2.616l.285,1.457.15.762c.057.256.139.51.209.769.294,1.038.6,2.126.921,3.254l.243.853c.078.288.2.564.3.849q.319.851.645,1.726l.647,1.725c.112.281.2.57.329.839s.253.538.377.8l1.443,3.059c.118.242.223.487.348.718l.388.674.743,1.288,1.34,2.305c.912,1.345,1.682,2.41,2.211,3.15a8.234,8.234,0,0,0,.866,1.117,8.266,8.266,0,0,0-.716-1.218l-2.089-3.231-1.28-2.317-.716-1.288-.376-.672c-.121-.23-.223-.476-.337-.717L205.6,70.63l-.371-.8c-.127-.267-.214-.555-.324-.834l-.64-1.714-.642-1.713c-.1-.284-.224-.557-.3-.842l-.245-.846c-.326-1.118-.641-2.2-.941-3.224-.072-.258-.157-.508-.217-.762s-.106-.507-.159-.755q-.157-.744-.306-1.444l-.557-2.591c-.228-1.587-.413-2.88-.546-3.8a8.322,8.322,0,0,0-.26-1.391" transform="translate(-100.196 -24.996)" fill="#263238"/>
            <path id="Path_1818" data-name="Path 1818" d="M147.944,119.22a3.066,3.066,0,0,1-.617.2l-1.7.446c-1.437.371-3.419.9-5.6,1.5s-4.161,1.154-5.6,1.511c-.721.18-1.307.314-1.714.4a3.108,3.108,0,0,1-.638.1,3.068,3.068,0,0,1,.614-.2l1.691-.479,5.583-1.584c2.185-.6,4.178-1.1,5.628-1.427.725-.163,1.313-.289,1.722-.366a3.112,3.112,0,0,1,.639-.1" transform="translate(-66.138 -59.702)" fill="#455a64"/>
            <path id="Path_1819" data-name="Path 1819" d="M138.2,113.539a7.466,7.466,0,0,1-1.34.571c-.841.315-2.016.717-3.33,1.11s-2.518.7-3.394.9a7.425,7.425,0,0,1-1.433.257,8.806,8.806,0,0,1,1.388-.435c.863-.243,2.055-.578,3.365-.969s2.49-.765,3.345-1.035a8.787,8.787,0,0,1,1.4-.4" transform="translate(-64.451 -56.857)" fill="#455a64"/>
            <path id="Path_1820" data-name="Path 1820" d="M134.8,105.594a38.319,38.319,0,0,1-4.23,1.414,38.2,38.2,0,0,1-4.306,1.166,38.387,38.387,0,0,1,4.231-1.414,38.306,38.306,0,0,1,4.305-1.166" transform="translate(-63.231 -52.877)" fill="#455a64"/>
            <path id="Path_1821" data-name="Path 1821" d="M131.768,97.942a30.745,30.745,0,0,1-3.6,1.719,30.686,30.686,0,0,1-3.707,1.481,30.683,30.683,0,0,1,3.6-1.719,30.665,30.665,0,0,1,3.707-1.481" transform="translate(-62.328 -49.046)" fill="#455a64"/>
            <path id="Path_1822" data-name="Path 1822" d="M70.2,169.028l-8.33-14.048-21.529-.889.022,1.958A33.153,33.153,0,0,0,32.543,170.1c-1.442,6.135,4.626,29.548,6.333,37.663,2.1,9.978,5.012,22.608,5.012,22.608-.432,2.236-3.3,4.046-3.105,7.032l47.855-.525-2.459-9.7Z" transform="translate(-16.187 -77.167)" fill="#0f557c"/>
            <path id="Path_1823" data-name="Path 1823" d="M98.777,307.815c0,.072-9.523.13-21.267.13s-21.269-.058-21.269-.13,9.521-.13,21.269-.13,21.267.058,21.267.13" transform="translate(-28.165 -154.086)" fill="#fff"/>
            <path id="Path_1824" data-name="Path 1824" d="M92.539,283.765c0,.072-9.437.13-21.074.13s-21.076-.058-21.076-.13,9.435-.13,21.076-.13,21.074.058,21.074.13" transform="translate(-25.234 -142.042)" fill="#fff"/>
            <path id="Path_1825" data-name="Path 1825" d="M86.938,257.618c0,.072-9.235.13-20.624.13s-20.626-.058-20.626-.13,9.233-.13,20.626-.13,20.624.058,20.624.13" transform="translate(-22.88 -128.948)" fill="#fff"/>
            <path id="Path_1826" data-name="Path 1826" d="M81.146,231.307c0,.072-9.512.13-21.244.13s-21.245-.058-21.245-.13,9.51-.13,21.245-.13,21.244.058,21.244.13" transform="translate(-19.359 -115.771)" fill="#fff"/>
            <path id="Path_1827" data-name="Path 1827" d="M73.371,198.666c0,.072-9,.13-20.1.13s-20.1-.058-20.1-.13,9-.13,20.1-.13,20.1.058,20.1.13" transform="translate(-16.609 -99.425)" fill="#fff"/>
            <path id="Path_1828" data-name="Path 1828" d="M70.184,168.769c0,.072-6.648.13-14.847.13s-14.849-.058-14.849-.13,6.647-.13,14.849-.13,14.847.058,14.847.13" transform="translate(-20.276 -84.453)" fill="#fff"/>
            <g id="Group_1489" data-name="Group 1489" transform="translate(22.458 100.524)" opacity="0.3">
              <g id="Group_1488" data-name="Group 1488">
                <g id="Group_1487" data-name="Group 1487" clip-path="url(#clip-path-3)">
                  <path id="Path_1829" data-name="Path 1829" d="M44.987,201.366a38.411,38.411,0,0,0,7.855,9.364c4.808,3.99,19.437,11.151,19.437,11.151l1.219-2.526L84.411,221.9l-2.022-6.716Z" transform="translate(-44.987 -201.366)"/>
                </g>
              </g>
            </g>
            <path id="Path_1830" data-name="Path 1830" d="M106,162.41,102.2,183.1l-32.63-15.511-5.258,18.4c12.823,6.272,38.785,16.712,42.127,16.41,4.75-.429,8.033-3.267,9.513-10.227.916-4.307.483-33.2.483-33.2Z" transform="translate(-32.206 -79.609)" fill="#ffc09d"/>
            <path id="Path_1831" data-name="Path 1831" d="M60.135,167.814s-12.2-7.539-17.527,1.961c-3.8,9.264.406,16.664,9.8,21.258,4.53,2.215,10.7,4.951,16.932,7.55l9.08-20.149Z" transform="translate(-20.639 -82.619)" fill="#0d6191"/>
            <path id="Path_1832" data-name="Path 1832" d="M60.029,167.746s.117.056.336.177l.968.545,3.685,2.108,13.348,7.7.08.046-.038.085-9.057,20.16-.051.113-.114-.047c-3.194-1.331-6.49-2.745-9.84-4.245q-2.227-1-4.389-2.009c-1.44-.675-2.855-1.351-4.221-2.093-.672-.385-1.333-.784-1.971-1.2-.62-.448-1.259-.858-1.823-1.358a18.568,18.568,0,0,1-3.09-3.16l-.621-.886a9.3,9.3,0,0,1-.543-.922,14.393,14.393,0,0,1-.886-1.906c-.119-.325-.2-.661-.3-.988l-.144-.491c-.041-.165-.061-.334-.093-.5q-.086-.5-.171-.993c-.03-.331-.041-.663-.063-.991a13.8,13.8,0,0,1,.038-1.941c.05-.635.185-1.252.272-1.864.158-.6.3-1.187.469-1.76l.6-1.651v0l0-.007A9.977,9.977,0,0,1,45.3,166.39a8.832,8.832,0,0,1,3.628-1.429,14.373,14.373,0,0,1,6.208.6,22.712,22.712,0,0,1,3.684,1.492c.4.208.708.379.91.5s.3.191.3.191-.107-.054-.313-.165-.513-.272-.922-.471a23.905,23.905,0,0,0-3.689-1.436,14.362,14.362,0,0,0-6.151-.554,8.682,8.682,0,0,0-3.549,1.419,9.812,9.812,0,0,0-2.816,3.217l0-.01-.589,1.638c-.16.567-.3,1.151-.457,1.741-.083.6-.215,1.213-.263,1.839a13.608,13.608,0,0,0-.031,1.911c.022.322.034.649.064.975q.085.484.171.975c.031.163.051.329.092.491l.143.482c.1.321.181.651.3.97a14.308,14.308,0,0,0,.875,1.872,9.105,9.105,0,0,0,.536.905l.612.871a18.356,18.356,0,0,0,3.054,3.113c.558.493,1.192.9,1.805,1.342.632.415,1.287.809,1.954,1.191,1.351.733,2.768,1.409,4.207,2.082s2.9,1.342,4.385,2.007c3.348,1.5,6.641,2.913,9.832,4.246l-.165.065,9.1-20.14.042.131-13.3-7.778L61.3,168.521l-.952-.571c-.214-.13-.32-.2-.32-.2" transform="translate(-20.534 -82.551)" fill="#263238"/>
            <path id="Path_1833" data-name="Path 1833" d="M144.69,148.156l.736-7.707s-2.945-5.932-2.888-6.525.23-3.862.23-3.862l7.363-6.628a2.4,2.4,0,0,1,2.445,2.36s2.3-.483,2.326,2.265c0,0,2.484.091,2.548,2.1,0,0,1.5-.2,1.445,1.9-.037,1.51-.7,7.3-.7,7.3l-3.08,5.356-.254,5.357Z" transform="translate(-71.381 -61.815)" fill="#ffc09d"/>
            <path id="Path_1834" data-name="Path 1834" d="M144.283,214.86c-.084.028-.627-1.843-1.743-3.942s-2.4-3.563-2.337-3.618a4.929,4.929,0,0,1,.871.929,16.355,16.355,0,0,1,1.7,2.566,17.853,17.853,0,0,1,1.2,2.83,5.139,5.139,0,0,1,.313,1.235" transform="translate(-70.211 -103.814)" fill="#7c4236"/>
            <path id="Path_1835" data-name="Path 1835" d="M54.663,165.534a4.334,4.334,0,0,1-.324.7c-.223.443-.558,1.079-.979,1.859-.842,1.562-2.043,3.7-3.39,6.044l-3.456,6.005-1.051,1.818a4.323,4.323,0,0,1-.413.651,4.377,4.377,0,0,1,.324-.7c.223-.443.558-1.078.98-1.859.842-1.562,2.043-3.7,3.391-6.045l3.455-6,1.051-1.818a4.351,4.351,0,0,1,.413-.652" transform="translate(-22.56 -82.898)" fill="#fff"/>
            <path id="Path_1836" data-name="Path 1836" d="M73.085,174.263a.826.826,0,0,1-.08.225l-.274.624c-.243.54-.607,1.315-1.066,2.268-.919,1.906-2.236,4.517-3.772,7.358s-3,5.372-4.095,7.185c-.546.907-1,1.635-1.315,2.133l-.372.571a.859.859,0,0,1-.145.19.838.838,0,0,1,.1-.217l.33-.6,1.244-2.174c1.051-1.835,2.488-4.378,4.024-7.216s2.875-5.432,3.835-7.316l1.139-2.23c.127-.239.232-.438.318-.6a.806.806,0,0,1,.127-.2" transform="translate(-31.032 -87.269)" fill="#fff"/>
            <path id="Path_1837" data-name="Path 1837" d="M95.657,186.742a5.7,5.7,0,0,1-.3.825c-.207.526-.527,1.279-.938,2.2-.821,1.847-2.04,4.362-3.54,7.056s-3,5.053-4.142,6.723c-.569.835-1.042,1.5-1.38,1.954a5.637,5.637,0,0,1-.545.689,5.736,5.736,0,0,1,.461-.747l1.31-2c1.1-1.692,2.568-4.06,4.068-6.747s2.738-5.183,3.6-7.007l1.012-2.165a5.657,5.657,0,0,1,.393-.785" transform="translate(-42.473 -93.519)" fill="#fff"/>
            <path id="Path_1838" data-name="Path 1838" d="M48.428,329.705l1.04-9.241,45.651-.5,1.165,9.742Z" transform="translate(-24.252 -160.235)" fill="#263238"/>
            <path id="Path_1839" data-name="Path 1839" d="M98.661,337.711c0,.072-14.064.13-31.409.13s-31.411-.058-31.411-.13,14.061-.13,31.411-.13,31.409.058,31.409.13" transform="translate(-17.949 -169.057)" fill="#455a64"/>
            <path id="Path_1840" data-name="Path 1840" d="M92.665,17.644H75.681a1.016,1.016,0,0,1-1.016-1.016v-.739a1.017,1.017,0,0,1,1.016-1.016H92.665a1.016,1.016,0,0,1,1.016,1.016v.739a1.016,1.016,0,0,1-1.016,1.016" transform="translate(-37.392 -7.448)" fill="#455a64"/>
            <path id="Path_1841" data-name="Path 1841" d="M119.209,16.259a1.386,1.386,0,1,1-1.385-1.385,1.385,1.385,0,0,1,1.385,1.385" transform="translate(-58.311 -7.449)" fill="#455a64"/>
            <path id="Path_1842" data-name="Path 1842" d="M4.778,81.117H3.653a3.1,3.1,0,0,1-3.1-3.095V61.047a3.1,3.1,0,0,1,3.1-3.1H4.778Z" transform="translate(-0.279 -29.022)" fill="#263238"/>
            <path id="Path_1843" data-name="Path 1843" d="M4.22,148.54H3.1a3.1,3.1,0,0,1-3.1-3.1V128.47a3.1,3.1,0,0,1,3.1-3.1H4.22Z" transform="translate(0 -62.787)" fill="#263238"/>
            <line id="Line_3" data-name="Line 3" y2="75.106" transform="translate(3.174 21.813)" fill="#ff725e"/>
            <path id="Path_1844" data-name="Path 1844" d="M6.228,118.8c-.072,0-.13-16.814-.13-37.551s.058-37.555.13-37.555.129,16.811.129,37.555S6.3,118.8,6.228,118.8" transform="translate(-3.054 -21.882)" fill="#455a64"/>
          </g>
        </g>
      </g>
    </g>
  </g>
</svg>
