<svg xmlns="http://www.w3.org/2000/svg" width="30.521" height="28.772" viewBox="0 0 30.521 28.772">
  <g id="Group_1372" data-name="Group 1372" transform="translate(-1600.999 -513.007)">
    <path id="Path_1602" data-name="Path 1602" d="M144.79,64.589h-2.881V62.707a1.107,1.107,0,0,0-2.213,0v1.881h-11.94V62.707a1.107,1.107,0,0,0-2.213,0v1.881h-3.157a4.058,4.058,0,0,0-4.058,4.058V86.316a4.057,4.057,0,0,0,4.058,4.058H144.79a4.057,4.057,0,0,0,4.058-4.058V68.646a4.058,4.058,0,0,0-4.058-4.058ZM126.147,83.3a2.988,2.988,0,1,1,2.109-.875A2.984,2.984,0,0,1,126.147,83.3Zm7.507,0a2.988,2.988,0,1,1,2.109-.875A2.984,2.984,0,0,1,133.654,83.3Zm7.507,0a2.988,2.988,0,1,1,2.108-.874,2.984,2.984,0,0,1-2.108.874Zm5.474-11.738H120.54V68.646a1.844,1.844,0,0,1,1.844-1.844h3.158v1.439a1.107,1.107,0,1,0,2.213,0V66.8H139.7v1.439a1.107,1.107,0,1,0,2.213,0V66.8h2.881a1.844,1.844,0,0,1,1.844,1.844Z" transform="translate(1482.672 451.406)" fill="#4c4c4c"/>
    <rect id="Rectangle_304" data-name="Rectangle 304" width="22.89" height="9.538" transform="translate(1604.815 527.307)" fill="#4c4c4c"/>
    <rect id="Rectangle_307" data-name="Rectangle 307" width="5.676" height="5.676" rx="1" transform="translate(1621.421 529.237)" fill="#fff"/>
    <rect id="Rectangle_308" data-name="Rectangle 308" width="5.676" height="5.676" rx="1" transform="translate(1613.421 529.237)" fill="#fff"/>
    <rect id="Rectangle_309" data-name="Rectangle 309" width="5.676" height="5.676" rx="1" transform="translate(1605.421 529.237)" fill="#fff"/>
  </g>
</svg>
