<svg xmlns="http://www.w3.org/2000/svg" xmlns:xlink="http://www.w3.org/1999/xlink" width="66" height="66" viewBox="0 0 66 66">
  <defs>
    <filter id="Rectangle_4" x="0" y="0" width="66" height="66" filterUnits="userSpaceOnUse">
      <feOffset dy="3" input="SourceAlpha"/>
      <feGaussianBlur stdDeviation="3" result="blur"/>
      <feFlood flood-opacity="0.161"/>
      <feComposite operator="in" in2="blur"/>
      <feComposite in="SourceGraphic"/>
    </filter>
    <clipPath id="clip-path">
      <rect id="_52_Background_Mask_" data-name="52 (Background/Mask)" width="24" height="24" transform="translate(0)" fill="none"/>
    </clipPath>
  </defs>
  <g id="Filter" transform="translate(9 6)">
    <g transform="matrix(1, 0, 0, 1, -9, -6)" filter="url(#Rectangle_4)">
      <rect id="Rectangle_4-2" data-name="Rectangle 4" width="48" height="48" rx="10" transform="translate(9 6)" fill="#0f557c"/>
    </g>
    <g id="_52" data-name="52" transform="translate(12 12)">
      <rect id="_52_Background_Mask_2" data-name="52 (Background/Mask)" width="24" height="24" transform="translate(0)" fill="none"/>
      <g id="_52-2" data-name="52" clip-path="url(#clip-path)">
        <g id="Group" transform="translate(4.29 5.5)">
          <path id="Vector" d="M2.15,4.3A2.15,2.15,0,1,1,4.3,2.15,2.15,2.15,0,0,1,2.15,4.3Z" transform="translate(3.03 9)" fill="none" stroke="#fff" stroke-linecap="round" stroke-linejoin="round" stroke-miterlimit="10" stroke-width="1.2" stroke-dasharray="0 0"/>
          <path id="Vector-2" data-name="Vector" d="M3.03,0H0" transform="translate(0 11.15)" fill="none" stroke="#fff" stroke-linecap="round" stroke-linejoin="round" stroke-miterlimit="10" stroke-width="1.2" stroke-dasharray="0 0"/>
          <path id="Vector-3" data-name="Vector" d="M5.33,0H0" transform="translate(9.67 11.15)" fill="none" stroke="#fff" stroke-linecap="round" stroke-linejoin="round" stroke-miterlimit="10" stroke-width="1.2" stroke-dasharray="0 0"/>
          <path id="Vector-4" data-name="Vector" d="M2.15,4.3A2.15,2.15,0,1,1,4.3,2.15,2.15,2.15,0,0,1,2.15,4.3Z" transform="translate(7.66)" fill="none" stroke="#fff" stroke-linecap="round" stroke-linejoin="round" stroke-miterlimit="10" stroke-width="1.2" stroke-dasharray="0 0"/>
          <path id="Vector-5" data-name="Vector" d="M0,0H3.03" transform="translate(11.97 2.15)" fill="none" stroke="#fff" stroke-linecap="round" stroke-linejoin="round" stroke-miterlimit="10" stroke-width="1.2" stroke-dasharray="0 0"/>
          <path id="Vector-6" data-name="Vector" d="M0,0H5.33" transform="translate(0 2.15)" fill="none" stroke="#fff" stroke-linecap="round" stroke-linejoin="round" stroke-miterlimit="10" stroke-width="1.2" stroke-dasharray="0 0"/>
        </g>
      </g>
    </g>
  </g>
</svg>
