<svg xmlns="http://www.w3.org/2000/svg" width="29.085" height="21.006" viewBox="0 0 29.085 21.006">
  <path id="Icon_color" data-name="Icon color" d="M29.085,9.752v1.5a.739.739,0,0,1-.727.75H4.843l6.471,6.664a.767.767,0,0,1,0,1.066l-1.033,1.051a.711.711,0,0,1-1.033,0L.32,11.584a1.144,1.144,0,0,1-.32-.8v-.57a1.175,1.175,0,0,1,.32-.8L9.249.222a.711.711,0,0,1,1.033,0l1.033,1.066a.752.752,0,0,1,0,1.051L4.843,9H28.358A.739.739,0,0,1,29.085,9.752Z" transform="translate(29.085 21.006) rotate(180)" fill="#fff"/>
</svg>
