<svg xmlns="http://www.w3.org/2000/svg" width="23.393" height="22.307" viewBox="0 0 23.393 22.307">
  <g id="Group_288" data-name="Group 288" transform="translate(0)">
    <g id="Group_104" data-name="Group 104" transform="translate(0 0)">
      <path id="Path_83" data-name="Path 83" d="M-237.054-68.817a.612.612,0,0,1,.494.373c.491.985.976,1.974,1.463,2.961l1.378,2.789a6.747,6.747,0,0,1,.313.655c.073.2.242.167.376.187.779.119,1.561.22,2.342.334.8.116,1.589.248,2.386.358.74.1,1.478.207,2.216.322a.656.656,0,0,1,.555.455.645.645,0,0,1-.152.7c-.29.292-.585.579-.88.866l-3.6,3.513q-.345.337-.694.67a.192.192,0,0,0-.065.194c.124.709.241,1.419.364,2.128.13.746.267,1.49.4,2.236.084.487.158.975.24,1.462.066.389.131.777.208,1.164a.713.713,0,0,1-.418.87.723.723,0,0,1-.609-.048q-1.271-.672-2.545-1.34l-3.26-1.712c-.182-.1-.361-.2-.541-.3a.229.229,0,0,1-.148-.251c0-.058,0-.116,0-.174q0-9.022,0-18.044c0-.079,0-.158,0-.237C-237.229-68.8-237.183-68.861-237.054-68.817Z" transform="translate(248.881 68.839)" fill="#aaa"/>
      <path id="Path_84" data-name="Path 84" d="M-408.926-68.939c-.1-.01-.147.035-.133.138a.611.611,0,0,1,0,.079q0,9.181,0,18.362c0,.1,0,.2.1.264a.242.242,0,0,0-.236.025q-2.5,1.319-5.01,2.633c-.425.223-.851.445-1.274.671a.7.7,0,0,1-.788-.03.672.672,0,0,1-.256-.717q.324-1.9.655-3.8c.168-.975.333-1.951.5-2.926.075-.429.08-.43-.229-.733q-1.488-1.455-2.978-2.908-.974-.95-1.952-1.9a.656.656,0,0,1-.178-.738.663.663,0,0,1,.58-.448c.329-.044.656-.1.985-.144.844-.121,1.688-.24,2.532-.363.667-.1,1.332-.2,2-.3.526-.078,1.052-.155,1.579-.226a.206.206,0,0,0,.175-.132q.871-1.774,1.746-3.546.713-1.446,1.427-2.891A.682.682,0,0,1-408.926-68.939Z" transform="translate(420.753 68.962)" fill="#aaa"/>
    </g>
  </g>
</svg>
