<svg xmlns="http://www.w3.org/2000/svg" width="63.223" height="32.102" viewBox="0 0 63.223 32.102">
  <g id="Group_221" data-name="Group 221" transform="translate(-248.25 -636.52)">
    <path id="Oval" d="M15.681-.25A27.613,27.613,0,0,1,26.873,1.878c3.056,1.4,4.739,3.286,4.739,5.309S29.929,11.1,26.873,12.5a27.613,27.613,0,0,1-11.192,2.128A27.613,27.613,0,0,1,4.489,12.5C1.433,11.1-.25,9.21-.25,7.187S1.433,3.278,4.489,1.878A27.613,27.613,0,0,1,15.681-.25Zm0,14.374a27.109,27.109,0,0,0,10.984-2.082C29.532,10.727,31.112,9,31.112,7.187s-1.579-3.54-4.447-4.855A27.109,27.109,0,0,0,15.681.25,27.109,27.109,0,0,0,4.7,2.332C1.829,3.647.25,5.371.25,7.187s1.579,3.54,4.447,4.855A27.109,27.109,0,0,0,15.681,14.124Z" transform="translate(264.181 647.464)" fill="#ffc425" opacity="0.5"/>
    <path id="Oval_Copy" data-name="Oval Copy" d="M23.521-.25A41.293,41.293,0,0,1,40.257,2.93c4.537,2.079,7.035,4.867,7.035,7.85s-2.5,5.771-7.035,7.85a41.293,41.293,0,0,1-16.736,3.18,41.293,41.293,0,0,1-16.736-3.18C2.248,16.552-.25,13.764-.25,10.781s2.5-5.771,7.035-7.85A41.293,41.293,0,0,1,23.521-.25Zm0,21.561a40.789,40.789,0,0,0,16.528-3.135,15.46,15.46,0,0,0,4.961-3.369,5.932,5.932,0,0,0,1.782-4.027A5.932,5.932,0,0,0,45.01,6.754a15.46,15.46,0,0,0-4.961-3.369A40.789,40.789,0,0,0,23.521.25,40.789,40.789,0,0,0,6.993,3.385,15.46,15.46,0,0,0,2.032,6.754,5.932,5.932,0,0,0,.25,10.781a5.932,5.932,0,0,0,1.782,4.027,15.46,15.46,0,0,0,4.961,3.369A40.789,40.789,0,0,0,23.521,21.311Z" transform="translate(256.34 643.543)" fill="#ffc425" opacity="0.5"/>
    <path id="Oval_Copy_2" data-name="Oval Copy 2" d="M31.362-.25c8.412,0,16.325,1.5,22.28,4.233a21.182,21.182,0,0,1,6.8,4.627,8.469,8.469,0,0,1,2.531,5.765,8.469,8.469,0,0,1-2.531,5.765,21.182,21.182,0,0,1-6.8,4.627C47.686,27.495,39.774,29,31.362,29s-16.325-1.5-22.28-4.233a21.182,21.182,0,0,1-6.8-4.627A8.469,8.469,0,0,1-.25,14.374,8.469,8.469,0,0,1,2.281,8.609a21.182,21.182,0,0,1,6.8-4.627C15.037,1.253,22.949-.25,31.362-.25Zm0,28.748c8.342,0,16.18-1.487,22.072-4.187A20.694,20.694,0,0,0,60.075,19.8a7.989,7.989,0,0,0,2.4-5.425,7.989,7.989,0,0,0-2.4-5.425,20.694,20.694,0,0,0-6.641-4.511C47.542,1.737,39.7.25,31.362.25S15.181,1.737,9.29,4.437A20.694,20.694,0,0,0,2.648,8.949a7.989,7.989,0,0,0-2.4,5.425,7.989,7.989,0,0,0,2.4,5.425A20.694,20.694,0,0,0,9.29,24.311C15.181,27.011,23.02,28.5,31.362,28.5Z" transform="translate(248.5 639.623)" fill="#ffc425" opacity="0.5"/>
    <ellipse id="Oval-2" data-name="Oval" cx="7.84" cy="3.267" rx="7.84" ry="3.267" transform="translate(272.021 651.384)" fill="#ffc425" opacity="0.3"/>
    <path id="Icon_color" data-name="Icon color" d="M7.483,17.968h-.5a.9.9,0,0,1-.9-.612l-.459-1.383C4.537,12.73,0,12.774,0,7.187a7.187,7.187,0,0,1,14.374,0c0,5.587-4.491,5.543-5.533,8.786l-.459,1.383a.9.9,0,0,1-.851.613Z" transform="translate(272.675 636.52)" fill="#ffc425"/>
  </g>
</svg>
