<svg xmlns="http://www.w3.org/2000/svg" width="51" height="51" viewBox="0 0 51 51">
  <g id="Group_1714" data-name="Group 1714" transform="translate(6075 -1279)">
    <circle id="Ellipse_1659" data-name="Ellipse 1659" cx="25.5" cy="25.5" r="25.5" transform="translate(-6075 1279)" fill="#5991bc"/>
    <g id="Group_1713" data-name="Group 1713" transform="translate(-6291.349 1030.023)">
      <path id="Path_397" data-name="Path 397" d="M227.349,281.146c.019-.019.051-.035.054-.056a5.75,5.75,0,0,1,.867-1.973q4.893-8.368,9.771-16.744a4.539,4.539,0,0,1,2.248-2.113,3.517,3.517,0,0,1,1.511-.278.423.423,0,0,1,.089.317q0,1.674,0,3.348a.689.689,0,0,1-.037.249c-.066.141-.2.154-.33.178A1.854,1.854,0,0,0,239.909,266q0,4.68,0,9.36a1.865,1.865,0,0,0,1.552,1.931.637.637,0,0,1,.363.137.5.5,0,0,1,.063.3c-.011.533.037,1.066-.027,1.6-.081.178-.261.164-.41.2a1.893,1.893,0,0,0-1.375,1.057,1.92,1.92,0,0,0,1.277,2.688c.175.041.386.008.5.2a21.005,21.005,0,0,1,.024,2.233.239.239,0,0,1-.077.175c-.874,0-1.749.008-2.623.009-2.5,0-5-.034-7.5.011a4.177,4.177,0,0,1-4.261-3.367c-.01-.052,0-.116-.064-.144Z" fill="#f7bc3b"/>
      <path id="Path_398" data-name="Path 398" d="M305.964,279.412q0-.981,0-1.962l.033-.038a1.581,1.581,0,0,1,.406-.111,1.884,1.884,0,0,0,1.46-1.669,7.2,7.2,0,0,0,.049-.9q0-4.132,0-8.264a4.268,4.268,0,0,0-.041-.618,1.9,1.9,0,0,0-1.646-1.78.57.57,0,0,1-.262-.118V260a3.853,3.853,0,0,1,3.54,2.013q4.531,7.71,9.019,15.445.681,1.168,1.364,2.335a4.1,4.1,0,0,1-2.895,6.062,3.416,3.416,0,0,1-.531.052H306.19c-.075,0-.15-.006-.225-.009q0-1.233,0-2.466l.026-.033a4.209,4.209,0,0,0,.906-.29,1.929,1.929,0,0,0-.611-3.589C306.183,279.478,306.049,279.517,305.964,279.412Z" transform="translate(-64.164 -0.022)" fill="#f9c067"/>
      <path id="Path_399" data-name="Path 399" d="M297.14,281.483c.078.017.166-.009.235.05a.773.773,0,0,0-.144.584q0,6.165,0,12.33c0,.174.044.361-.093.512l.005.022a2.026,2.026,0,0,1-1.95-1.584,2.591,2.591,0,0,1-.04-.589q0-4.572,0-9.143a1.972,1.972,0,0,1,1.881-2.148A.651.651,0,0,0,297.14,281.483Z" transform="translate(-55.34 -17.553)" fill="#35495e"/>
      <path id="Path_400" data-name="Path 400" d="M297.1,365.589c.114.025.24-.021.344.06-.236.106-.259.3-.257.535.007.993,0,1.986,0,2.979,0,.146.028.3-.091.426l.005.022a2,2,0,0,1-.335-3.968Z" transform="translate(-55.3 -86.199)" fill="#35495e"/>
      <path id="Path_401" data-name="Path 401" d="M305.95,295.166q0-6.549,0-13.1c0-.169-.038-.359.236-.329a1.943,1.943,0,0,1,1.737,1.654,6.442,6.442,0,0,1,.039.7q0,4.428,0,8.855a2.128,2.128,0,0,1-.726,1.757A1.806,1.806,0,0,1,305.95,295.166Z" transform="translate(-64.153 -17.76)" fill="#48718f"/>
      <path id="Path_402" data-name="Path 402" d="M305.935,369.806c0-1.193.011-2.386,0-3.579,0-.275.055-.412.35-.361a1.951,1.951,0,0,1,1.651,1.877A1.975,1.975,0,0,1,305.935,369.806Z" transform="translate(-64.138 -86.417)" fill="#48718f"/>
    </g>
  </g>
</svg>
