<svg xmlns="http://www.w3.org/2000/svg" width="49.974" height="49.974" viewBox="0 0 49.974 49.974">
  <g id="Group_535" data-name="Group 535" transform="translate(-115 -335)">
    <g id="Group_516" data-name="Group 516" transform="translate(-11.423 146.181)">
      <path id="Path_370" data-name="Path 370" d="M176.444,213.073v1.562a1.026,1.026,0,0,0,0,.683V216c-.117.653-.1,1.318-.162,1.975A18.853,18.853,0,0,1,175,222.858a24.267,24.267,0,0,1-4.014,6.922,25.524,25.524,0,0,1-7.567,6.259,24.842,24.842,0,0,1-7.169,2.554,22.877,22.877,0,0,1-2.468.2c-.126.01-.26-.042-.376.048h-.586c-.158-.1-.333-.026-.5-.049-.191.025-.391-.054-.575.049h-.586c-.188-.1-.391-.024-.585-.049-.195.025-.4-.054-.586.049h-.586c-.687-.108-1.383-.094-2.073-.162a18.4,18.4,0,0,1-4.6-1.182,24.564,24.564,0,0,1-6.039-3.222,25.966,25.966,0,0,1-5.766-5.817,25.347,25.347,0,0,1-4.011-8.8,19.914,19.914,0,0,1-.4-3.421c-.008-.11.036-.228-.048-.327v-.781a.768.768,0,0,0,0-.586v-1.366a.768.768,0,0,0,0-.586v-.878c.117-.653.1-1.318.162-1.976a19.4,19.4,0,0,1,1.276-4.883,24.2,24.2,0,0,1,4.547-7.552,25.183,25.183,0,0,1,7.165-5.694,24.572,24.572,0,0,1,7.04-2.487,22.327,22.327,0,0,1,2.419-.2c.11-.008.229.036.327-.048h.586a1.027,1.027,0,0,0,.683,0h1.464a1.027,1.027,0,0,0,.683,0h.683c.735.115,1.482.082,2.218.176a21.921,21.921,0,0,1,5.908,1.744,23.84,23.84,0,0,1,6.345,4.032,25.173,25.173,0,0,1,5.639,7.026,24.509,24.509,0,0,1,2.579,7.212,22.348,22.348,0,0,1,.2,2.468c.009.126-.042.26.048.376v.488A1.026,1.026,0,0,0,176.444,213.073Z" transform="translate(-0.047 -0.048)" fill="#5991bc"/>
      <path id="Path_375" data-name="Path 375" d="M307.835,188.867a.6.6,0,0,1-.683,0Z" transform="translate(-157.206 -0.048)" fill="#f2d589"/>
      <path id="Path_376" data-name="Path 376" d="M324.329,188.867a.6.6,0,0,1-.683,0Z" transform="translate(-171.553 -0.048)" fill="#f2d485"/>
      <path id="Path_377" data-name="Path 377" d="M509.613,370.231a.6.6,0,0,1,0-.683Z" transform="translate(-333.217 -157.206)" fill="#f3d78d"/>
      <path id="Path_378" data-name="Path 378" d="M509.613,387.474a.6.6,0,0,1,0-.683Z" transform="translate(-333.217 -172.204)" fill="#f3d78d"/>
      <path id="Path_379" data-name="Path 379" d="M126.47,371.047a.468.468,0,0,1,0,.586Z" transform="translate(-0.047 -158.51)" fill="#f1d17c"/>
      <path id="Path_380" data-name="Path 380" d="M126.47,386.042a.468.468,0,0,1,0,.586Z" transform="translate(-0.047 -171.553)" fill="#f1d17c"/>
      <path id="Path_381" data-name="Path 381" d="M307.152,572.054c.173-.159.385-.076.581-.095q.1.043,0,.095Z" transform="translate(-157.206 -333.261)" fill="#f2d68a"/>
      <path id="Path_382" data-name="Path 382" d="M311.622,572.059c0-.032,0-.063,0-.095.2.01.411-.051.59.095Z" transform="translate(-161.091 -333.266)" fill="#efcb6b"/>
      <path id="Path_383" data-name="Path 383" d="M320.647,572.063c.179-.146.391-.084.591-.093q.093.052-.006.093Z" transform="translate(-168.944 -333.27)" fill="#f0cc6e"/>
      <path id="Path_384" data-name="Path 384" d="M325.145,572.079c0-.031,0-.062.006-.093.165.01.342-.047.482.093Z" transform="translate(-172.857 -333.286)" fill="#f3d78d"/>
      <path id="Path_395" data-name="Path 395" d="M398.673,423.616l.092-.094c.085.154.327.243.2.484Z" transform="translate(-236.812 -204.153)" fill="#406682"/>
    </g>
    <g id="Group_494" data-name="Group 494" transform="translate(-101.349 87.023)">
      <path id="Path_397" data-name="Path 397" d="M227.349,281.146c.019-.019.051-.035.054-.056a5.75,5.75,0,0,1,.867-1.973q4.893-8.368,9.771-16.744a4.539,4.539,0,0,1,2.248-2.113,3.517,3.517,0,0,1,1.511-.278.423.423,0,0,1,.089.317q0,1.674,0,3.348a.689.689,0,0,1-.037.249c-.066.141-.2.154-.33.178A1.854,1.854,0,0,0,239.909,266q0,4.68,0,9.36a1.865,1.865,0,0,0,1.552,1.931.637.637,0,0,1,.363.137.5.5,0,0,1,.063.3c-.011.533.037,1.066-.027,1.6-.081.178-.261.164-.41.2a1.893,1.893,0,0,0-1.375,1.057,1.92,1.92,0,0,0,1.277,2.688c.175.041.386.008.5.2a21.005,21.005,0,0,1,.024,2.233.239.239,0,0,1-.077.175c-.874,0-1.749.008-2.623.009-2.5,0-5-.034-7.5.011a4.177,4.177,0,0,1-4.261-3.367c-.01-.052,0-.116-.064-.144Z" fill="#f7bc3b"/>
      <path id="Path_398" data-name="Path 398" d="M305.964,279.412q0-.981,0-1.962l.033-.038a1.581,1.581,0,0,1,.406-.111,1.884,1.884,0,0,0,1.46-1.669,7.2,7.2,0,0,0,.049-.9q0-4.132,0-8.264a4.268,4.268,0,0,0-.041-.618,1.9,1.9,0,0,0-1.646-1.78.57.57,0,0,1-.262-.118V260a3.853,3.853,0,0,1,3.54,2.013q4.531,7.71,9.019,15.445.681,1.168,1.364,2.335a4.1,4.1,0,0,1-2.895,6.062,3.416,3.416,0,0,1-.531.052H306.19c-.075,0-.15-.006-.225-.009q0-1.233,0-2.466l.026-.033a4.209,4.209,0,0,0,.906-.29,1.929,1.929,0,0,0-.611-3.589C306.183,279.478,306.049,279.517,305.964,279.412Z" transform="translate(-64.164 -0.022)" fill="#f9c067"/>
      <path id="Path_399" data-name="Path 399" d="M297.14,281.483c.078.017.166-.009.235.05a.773.773,0,0,0-.144.584q0,6.165,0,12.33c0,.174.044.361-.093.512l.005.022a2.026,2.026,0,0,1-1.95-1.584,2.591,2.591,0,0,1-.04-.589q0-4.572,0-9.143a1.972,1.972,0,0,1,1.881-2.148A.651.651,0,0,0,297.14,281.483Z" transform="translate(-55.34 -17.553)" fill="#35495e"/>
      <path id="Path_400" data-name="Path 400" d="M297.1,365.589c.114.025.24-.021.344.06-.236.106-.259.3-.257.535.007.993,0,1.986,0,2.979,0,.146.028.3-.091.426l.005.022a2,2,0,0,1-.335-3.968Z" transform="translate(-55.3 -86.199)" fill="#35495e"/>
      <path id="Path_401" data-name="Path 401" d="M305.95,295.166q0-6.549,0-13.1c0-.169-.038-.359.236-.329a1.943,1.943,0,0,1,1.737,1.654,6.442,6.442,0,0,1,.039.7q0,4.428,0,8.855a2.128,2.128,0,0,1-.726,1.757A1.806,1.806,0,0,1,305.95,295.166Z" transform="translate(-64.153 -17.76)" fill="#48718f"/>
      <path id="Path_402" data-name="Path 402" d="M305.935,369.806c0-1.193.011-2.386,0-3.579,0-.275.055-.412.35-.361a1.951,1.951,0,0,1,1.651,1.877A1.975,1.975,0,0,1,305.935,369.806Z" transform="translate(-64.138 -86.417)" fill="#48718f"/>
    </g>
  </g>
</svg>
