<svg xmlns="http://www.w3.org/2000/svg" width="49.974" height="49.974" viewBox="0 0 49.974 49.974">
  <g id="Group_493" data-name="Group 493" transform="translate(-126.423 -188.819)">
    <path id="Path_370" data-name="Path 370" d="M176.444,213.073v1.562a1.026,1.026,0,0,0,0,.683V216c-.117.653-.1,1.318-.162,1.975A18.853,18.853,0,0,1,175,222.858a24.267,24.267,0,0,1-4.014,6.922,25.524,25.524,0,0,1-7.567,6.259,24.842,24.842,0,0,1-7.169,2.554,22.877,22.877,0,0,1-2.468.2c-.126.01-.26-.042-.376.048h-.586c-.158-.1-.333-.026-.5-.049-.191.025-.391-.054-.575.049h-.586c-.188-.1-.391-.024-.585-.049-.195.025-.4-.054-.586.049h-.586c-.687-.108-1.383-.094-2.073-.162a18.4,18.4,0,0,1-4.6-1.182,24.564,24.564,0,0,1-6.039-3.222,25.966,25.966,0,0,1-5.766-5.817,25.347,25.347,0,0,1-4.011-8.8,19.914,19.914,0,0,1-.4-3.421c-.008-.11.036-.228-.048-.327v-.781a.768.768,0,0,0,0-.586v-1.366a.768.768,0,0,0,0-.586v-.878c.117-.653.1-1.318.162-1.976a19.4,19.4,0,0,1,1.276-4.883,24.2,24.2,0,0,1,4.547-7.552,25.183,25.183,0,0,1,7.165-5.694,24.572,24.572,0,0,1,7.04-2.487,22.327,22.327,0,0,1,2.419-.2c.11-.008.229.036.327-.048h.586a1.027,1.027,0,0,0,.683,0h1.464a1.027,1.027,0,0,0,.683,0h.683c.735.115,1.482.082,2.218.176a21.921,21.921,0,0,1,5.908,1.744,23.84,23.84,0,0,1,6.345,4.032,25.173,25.173,0,0,1,5.639,7.026,24.509,24.509,0,0,1,2.579,7.212,22.348,22.348,0,0,1,.2,2.468c.009.126-.042.26.048.376v.488A1.026,1.026,0,0,0,176.444,213.073Z" transform="translate(-0.047 -0.048)" fill="#f9c067"/>
    <path id="Path_375" data-name="Path 375" d="M307.835,188.867a.6.6,0,0,1-.683,0Z" transform="translate(-157.206 -0.048)" fill="#f2d589"/>
    <path id="Path_376" data-name="Path 376" d="M324.329,188.867a.6.6,0,0,1-.683,0Z" transform="translate(-171.553 -0.048)" fill="#f2d485"/>
    <path id="Path_377" data-name="Path 377" d="M509.613,370.231a.6.6,0,0,1,0-.683Z" transform="translate(-333.217 -157.206)" fill="#f3d78d"/>
    <path id="Path_378" data-name="Path 378" d="M509.613,387.474a.6.6,0,0,1,0-.683Z" transform="translate(-333.217 -172.204)" fill="#f3d78d"/>
    <path id="Path_379" data-name="Path 379" d="M126.47,371.047a.468.468,0,0,1,0,.586Z" transform="translate(-0.047 -158.51)" fill="#f1d17c"/>
    <path id="Path_380" data-name="Path 380" d="M126.47,386.042a.468.468,0,0,1,0,.586Z" transform="translate(-0.047 -171.553)" fill="#f1d17c"/>
    <path id="Path_381" data-name="Path 381" d="M307.152,572.054c.173-.159.385-.076.581-.095q.1.043,0,.095Z" transform="translate(-157.206 -333.261)" fill="#f2d68a"/>
    <path id="Path_382" data-name="Path 382" d="M311.622,572.059c0-.032,0-.063,0-.095.2.01.411-.051.59.095Z" transform="translate(-161.091 -333.266)" fill="#efcb6b"/>
    <path id="Path_383" data-name="Path 383" d="M320.647,572.063c.179-.146.391-.084.591-.093q.093.052-.006.093Z" transform="translate(-168.944 -333.27)" fill="#f0cc6e"/>
    <path id="Path_384" data-name="Path 384" d="M325.145,572.079c0-.031,0-.062.006-.093.165.01.342-.047.482.093Z" transform="translate(-172.857 -333.286)" fill="#f3d78d"/>
    <path id="Path_385" data-name="Path 385" d="M228.071,301.076l-2.452.759a.924.924,0,0,1-.935-.469A15.194,15.194,0,0,1,222.7,297.7a20.824,20.824,0,0,1-1.371-4.7.706.706,0,0,1,.041-.52,17.413,17.413,0,0,1,1.955-.713,31.313,31.313,0,0,0,8.951-5.144,24.663,24.663,0,0,0,4.6-5.194,3,3,0,0,1,.314-.433c.122-.124.251-.28.454-.116a9.6,9.6,0,0,1,.306,1.909,43.854,43.854,0,0,0,.975,4.323,4.033,4.033,0,0,0,.3.773,24.749,24.749,0,0,0,1.349,4.056c.264.716.6,1.4.912,2.1.657,1.413,1.39,2.786,2.179,4.129a8.792,8.792,0,0,0,.839,1.192,1.923,1.923,0,0,0,.345.418,6.482,6.482,0,0,0,1.991,1.674c.1.042.2.114.176.257a2.878,2.878,0,0,1-1.233-.228,37.739,37.739,0,0,0-5.905-1.437,24.454,24.454,0,0,0-6.6-.029.96.96,0,0,1-.689.3c-1.362.181-2.685.556-4.035.8A.462.462,0,0,1,228.071,301.076Z" transform="translate(-82.528 -80.013)" fill="#5991bc"/>
    <path id="Path_386" data-name="Path 386" d="M367.256,286.125a4.969,4.969,0,0,1-2.327-1.833c.011-.229-.22-.322-.284-.509a23.882,23.882,0,0,1-2.444-4.693,2.785,2.785,0,0,1-.2-.75.35.35,0,0,1,.039-.143,5.48,5.48,0,0,0,1.26-1.752,3.029,3.029,0,0,0-2.073-3.853,2.418,2.418,0,0,1-.969-.273.5.5,0,0,1-.074-.145,13.428,13.428,0,0,1-.45-2.385,14.822,14.822,0,0,1-.156-1.793,8.709,8.709,0,0,1,.52-4.019,2.247,2.247,0,0,1,.584-.772.852.852,0,0,1,1.063-.2,21.5,21.5,0,0,1,3.845,6,37.338,37.338,0,0,1,3.293,10.916,12.642,12.642,0,0,1-.045,4.412,3.131,3.131,0,0,1-.43,1.08A1.342,1.342,0,0,1,367.256,286.125Z" transform="translate(-202.778 -64.439)" fill="#48718f"/>
    <path id="Path_387" data-name="Path 387" d="M273.333,435.769l.405-.114a21.535,21.535,0,0,1,2.618,1.108c.238.1.462.232.7.329.465.188.462.187.591-.288.037-.136.062-.3.264-.283-.008.211-.019.421-.023.632a1.252,1.252,0,0,0,.552,1.211,1.032,1.032,0,0,1,.453.923c0,.422.04.844.03,1.266a.929.929,0,0,0,.714,1.026c1.4.384,1.209,1.339.432,2.135a7.433,7.433,0,0,1-1.929,1.545c-.907.456-1.394.331-1.915-.539a19.075,19.075,0,0,1-1.8-4.711C274.027,438.6,273.694,437.183,273.333,435.769Z" transform="translate(-127.79 -214.707)" fill="#3e4e5c"/>
    <path id="Path_388" data-name="Path 388" d="M237.163,262.362a28.044,28.044,0,0,1-3.869,4.81,27.7,27.7,0,0,1-5.846,4.266,34.457,34.457,0,0,1-5.752,2.518c-.2.066-.4.176-.6.023-.362-.274-.2-.566-.03-.859.054-.454.363-.636.758-.781a31.245,31.245,0,0,0,9.309-5.188,26.706,26.706,0,0,0,5.23-6,10.113,10.113,0,0,1,1.124-1.585.407.407,0,0,1,.106.442,7.08,7.08,0,0,0-.2,1.862C237.39,262.064,237.38,262.264,237.163,262.362Z" transform="translate(-82.161 -61.543)" fill="#63a2d1"/>
    <path id="Path_389" data-name="Path 389" d="M209.268,376.048a2.882,2.882,0,0,1-3.072-.364,7.486,7.486,0,0,1-3-5.261,5.491,5.491,0,0,1,.294-2.922,2.608,2.608,0,0,1,1.464-1.6c.33.262.227.66.283.994a21.9,21.9,0,0,0,3.219,8.341C208.671,375.567,209.04,375.733,209.268,376.048Z" transform="translate(-66.717 -154.03)" fill="#3c4c59"/>
    <path id="Path_390" data-name="Path 390" d="M345.988,256.643a8.163,8.163,0,0,1,.319-2.795,1.514,1.514,0,0,1,2.25-.58,4.567,4.567,0,0,1,1.393,1.123,1.576,1.576,0,0,0-1.355.89,4.757,4.757,0,0,0-.533,1.856,19.6,19.6,0,0,0,.342,5.591c.047.287.09.575.136.862-.349.361-.574.407-.983.2-.2-.05-.216-.231-.259-.38A29.243,29.243,0,0,1,345.988,256.643Z" transform="translate(-190.985 -55.824)" fill="#3d607b"/>
    <path id="Path_391" data-name="Path 391" d="M221.513,374.118c-.524.013-.766-.383-1.016-.734a18.473,18.473,0,0,1-2.009-3.944,20.389,20.389,0,0,1-1.27-4.742,6.336,6.336,0,0,1-.02-.73,2.7,2.7,0,0,1,.667-.289q.015.429.03.859a21.393,21.393,0,0,0,3.007,8.239,2.556,2.556,0,0,0,1.152,1.146A1.256,1.256,0,0,1,221.513,374.118Z" transform="translate(-78.962 -152.101)" fill="#323e4a"/>
    <path id="Path_392" data-name="Path 392" d="M280.623,430.135a1.762,1.762,0,0,0-.084.855c-.008.2-.076.265-.268.176q-1.823-.842-3.647-1.68a.3.3,0,0,1-.177-.216,27.883,27.883,0,0,1,4.789-.956Z" transform="translate(-130.499 -208.321)" fill="#323e4a"/>
    <path id="Path_393" data-name="Path 393" d="M357.536,334.607l.983-.2a.382.382,0,0,1,0,.083.7.7,0,0,1,.382.53,40.889,40.889,0,0,0,1.37,4.757c.076.224.207.456.008.687a.22.22,0,0,1-.008.077c-.077.267-.238.339-.486.211a2.283,2.283,0,0,1-.471-.887,44.15,44.15,0,0,1-1.769-4.71C357.493,334.975,357.385,334.794,357.536,334.607Z" transform="translate(-200.964 -126.642)" fill="#c7c9ca"/>
    <path id="Path_394" data-name="Path 394" d="M375.359,381.732l.486-.211a2.242,2.242,0,0,1,.372.838,41.352,41.352,0,0,0,2.269,4.63c.042.1-.006.116-.092.094A24.285,24.285,0,0,1,375.359,381.732Z" transform="translate(-216.533 -167.62)" fill="#3d607b"/>
    <path id="Path_395" data-name="Path 395" d="M398.673,423.616l.092-.094c.085.154.327.243.2.484Z" transform="translate(-236.812 -204.153)" fill="#406682"/>
    <path id="Path_396" data-name="Path 396" d="M367.4,341a52.859,52.859,0,0,1-1.76-5.973A3.21,3.21,0,0,1,367.4,341Z" transform="translate(-208.078 -127.172)" fill="#eaeced"/>
  </g>
</svg>
