<svg xmlns="http://www.w3.org/2000/svg" width="29.043" height="26.297" viewBox="0 0 29.043 26.297">
  <path id="noun-job-3266610" d="M78.753,26.473a.908.908,0,0,0-.911.906v3.5H70.915a.9.9,0,0,0-.911.9v5.233c0,1.895,1.461,3.416,3.5,4.508a21.555,21.555,0,0,0,7.1,1.923V40.8h0a.908.908,0,0,1,.911-.911h6.016a.908.908,0,0,1,.9.911v2.647a21.549,21.549,0,0,0,7.108-1.923c2.041-1.092,3.5-2.613,3.5-4.508V31.78a.907.907,0,0,0-.9-.9H91.208v-3.5a.907.907,0,0,0-.9-.906Zm.9,1.817h9.735v2.586H79.657ZM82.424,41.7v2.359h4.2V41.7Zm15.684.315a11.8,11.8,0,0,1-1.7,1.1,20.275,20.275,0,0,1-6.149,1.829v.007a31.432,31.432,0,0,1-11.462,0V44.95a20.273,20.273,0,0,1-6.144-1.829,11.867,11.867,0,0,1-1.7-1.1v9.836a.908.908,0,0,0,.9.911H97.2a.908.908,0,0,0,.9-.911Z" transform="translate(-70.004 -26.473)" fill="#4c4c4c"/>
</svg>
