<svg xmlns="http://www.w3.org/2000/svg" width="37.964" height="37.964" viewBox="0 0 37.964 37.964">
  <g id="Group_1372" data-name="Group 1372" transform="translate(2063.5 14682.716)">
    <g id="Group_1238" data-name="Group 1238" transform="translate(-3609 -15164.233)">
      <g id="noun-close-2194865" transform="translate(1440.998 447.02)">
        <path id="Path_1131" data-name="Path 1131" d="M123.484,35a18.481,18.481,0,1,0,9.241,2.476A18.482,18.482,0,0,0,123.484,35Zm0,35.644a17.162,17.162,0,1,1,12.136-5.027A17.163,17.163,0,0,1,123.484,70.642Z" transform="translate(0 0)"/>
        <path id="Path_1131_-_Outline" data-name="Path 1131 - Outline" d="M123.484,34.5a18.941,18.941,0,1,1-1.226.039l-.042-.039Zm.071,1h-.07a17.851,17.851,0,1,0,.07,0Zm-.07.32a17.662,17.662,0,1,1-6.759,1.344A17.574,17.574,0,0,1,123.484,35.818Zm0,34.324a16.663,16.663,0,1,0-6.376-1.268A16.58,16.58,0,0,0,123.484,70.142Z" transform="translate(0 0)"/>
      </g>
    </g>
    <path id="Path_1133" data-name="Path 1133" d="M162.336,104.849l-.321.4-4.33.962-.241-.241.962-4.25.4-.4Zm11.627-11.627-3.528-3.528,1.283-1.283a1.888,1.888,0,0,1,2.646,0l.962.962a1.79,1.79,0,0,1,0,2.566Zm-10.345,10.425-3.528-3.609,9.3-9.3,3.528,3.528Z" transform="translate(-2211.175 -14760.775)" fill-rule="evenodd"/>
  </g>
</svg>
