<svg xmlns="http://www.w3.org/2000/svg" width="38" height="29" viewBox="0 0 38 29">
  <g id="Group_1750" data-name="Group 1750" transform="translate(-325 -323)">
    <rect id="Rectangle_149672" data-name="Rectangle 149672" width="38" height="29" transform="translate(325 323)" fill="#fff"/>
    <g id="Group_1749" data-name="Group 1749" transform="translate(-6.932 -1.544)">
      <path id="Path_45436" data-name="Path 45436" d="M91.184,128.317a5.56,5.56,0,1,0,3.926,1.628,5.554,5.554,0,0,0-3.926-1.628Zm0,9.2a3.646,3.646,0,1,1,2.575-1.068A3.643,3.643,0,0,1,91.184,137.514Zm15.08-4.236c-4.115-5.182-9.469-8.036-15.08-8.036s-10.964,2.854-15.078,8.036a.955.955,0,0,0,0,1.188c4.113,5.182,9.469,8.036,15.078,8.036s10.965-2.854,15.079-8.036a.963.963,0,0,0,0-1.188Zm-15.08,7.312c-4.8,0-9.425-2.38-13.095-6.719,3.67-4.339,8.295-6.719,13.095-6.719s9.426,2.38,13.1,6.719C100.61,138.21,95.984,140.59,91.184,140.59Z" transform="translate(260.031 205.302)" fill="#a2a2a2"/>
    </g>
  </g>
</svg>
