<svg xmlns="http://www.w3.org/2000/svg" width="8.421" height="26.054" viewBox="0 0 8.421 26.054">
  <g id="noun_option_1366584" transform="translate(49.546 -19.5) rotate(90)">
    <g id="Group_266" data-name="Group 266" transform="translate(20.5 42.125)">
      <path id="Path_291" data-name="Path 291" d="M25.7,42.125H21.723A1.223,1.223,0,0,0,20.5,43.348v3.975a1.223,1.223,0,0,0,1.223,1.223H25.7a1.223,1.223,0,0,0,1.223-1.223V43.348A1.223,1.223,0,0,0,25.7,42.125Z" transform="translate(-20.5 -42.125)" fill="#1f1b1b"/>
      <path id="Path_291_-_Outline" data-name="Path 291 - Outline" d="M21.723,41.125H25.7a2.226,2.226,0,0,1,2.223,2.223v3.975A2.226,2.226,0,0,1,25.7,49.546H21.723A2.226,2.226,0,0,1,19.5,47.323V43.348A2.226,2.226,0,0,1,21.723,41.125ZM25.7,47.546a.223.223,0,0,0,.223-.223V43.348a.223.223,0,0,0-.223-.223H21.723a.223.223,0,0,0-.223.223v3.975a.223.223,0,0,0,.223.223Z" transform="translate(-20.5 -42.125)" fill="#fff"/>
      <path id="Path_292" data-name="Path 292" d="M47.323,42.125H43.348a1.223,1.223,0,0,0-1.223,1.223v3.975a1.223,1.223,0,0,0,1.223,1.223h3.975a1.223,1.223,0,0,0,1.223-1.223V43.348A1.223,1.223,0,0,0,47.323,42.125Z" transform="translate(-33.309 -42.125)" fill="#1f1b1b"/>
      <path id="Path_292_-_Outline" data-name="Path 292 - Outline" d="M43.348,41.125h3.975a2.226,2.226,0,0,1,2.223,2.223v3.975a2.226,2.226,0,0,1-2.223,2.223H43.348a2.226,2.226,0,0,1-2.223-2.223V43.348A2.226,2.226,0,0,1,43.348,41.125Zm3.975,6.421a.223.223,0,0,0,.223-.223V43.348a.223.223,0,0,0-.223-.223H43.348a.223.223,0,0,0-.223.223v3.975a.223.223,0,0,0,.223.223Z" transform="translate(-33.309 -42.125)" fill="#fff"/>
      <path id="Path_293" data-name="Path 293" d="M68.948,42.125H64.973a1.223,1.223,0,0,0-1.223,1.223v3.975a1.223,1.223,0,0,0,1.223,1.223h3.975a1.223,1.223,0,0,0,1.223-1.223V43.348A1.223,1.223,0,0,0,68.948,42.125Z" transform="translate(-46.117 -42.125)" fill="#1f1b1b"/>
      <path id="Path_293_-_Outline" data-name="Path 293 - Outline" d="M64.973,41.125h3.975a2.226,2.226,0,0,1,2.223,2.223v3.975a2.226,2.226,0,0,1-2.223,2.223H64.973a2.226,2.226,0,0,1-2.223-2.223V43.348A2.226,2.226,0,0,1,64.973,41.125Zm3.975,6.421a.223.223,0,0,0,.223-.223V43.348a.223.223,0,0,0-.223-.223H64.973a.223.223,0,0,0-.223.223v3.975a.223.223,0,0,0,.223.223Z" transform="translate(-46.117 -42.125)" fill="#fff"/>
    </g>
  </g>
</svg>
