<svg xmlns="http://www.w3.org/2000/svg" xmlns:xlink="http://www.w3.org/1999/xlink" width="271.474" height="254.33" viewBox="0 0 271.474 254.33">
  <defs>
    <clipPath id="clip-path">
      <rect id="Rectangle_149669" data-name="Rectangle 149669" width="170.191" height="148.736" fill="none"/>
    </clipPath>
  </defs>
  <g id="Group_1744" data-name="Group 1744" transform="translate(-83 -77)">
    <path id="Path_1791" data-name="Path 1791" d="M371.189,620.736c8.728,9.8,4.547,45.376-15.554,50.678s-49.379,61.052,5.273,92.209,102.585-12.942,126.412-5.834,76.623,20.294,97.741-43.5,29.418-127.183-27.484-166.823c-52.005-36.229-99.369,3.771-140.721-20.377C375.687,503.053,306.295,547.882,371.189,620.736Z" transform="translate(-246.558 -443.563)" fill="#def3ff" opacity="0.376"/>
    <g id="Group_1743" data-name="Group 1743" transform="translate(134 130)">
      <g id="Group_1742" data-name="Group 1742" transform="translate(0 0)" clip-path="url(#clip-path)">
        <path id="Path_45409" data-name="Path 45409" d="M71.347,25.311l-.18-15.181c0-.281.156-.511.355-.513s.365.224.368.505L72.069,25.3c0,.281-.156.511-.355.513s-.363-.222-.366-.5" transform="translate(63.966 8.644)" fill="#fff"/>
        <path id="Path_45410" data-name="Path 45410" d="M71.917,73.469l-.18-15.181c0-.281.156-.509.355-.513s.365.224.368.505l.179,15.179c0,.281-.156.511-.355.513s-.363-.222-.366-.5" transform="translate(64.478 51.929)" fill="#fff"/>
        <path id="Path_45411" data-name="Path 45411" d="M76.245,55.389a.629.629,0,0,1,.11-.374.3.3,0,0,1,.511.021l8.081,11.949a.663.663,0,0,1-.011.718.294.294,0,0,1-.511-.019L76.346,55.735a.635.635,0,0,1-.1-.346" transform="translate(68.53 49.324)" fill="#fff"/>
        <path id="Path_45412" data-name="Path 45412" d="M79.618,50.618a.655.655,0,0,1,.038-.234c.087-.251.3-.351.482-.224l11.167,7.888a.624.624,0,0,1,.163.682c-.087.251-.3.351-.482.226L79.819,51.068a.562.562,0,0,1-.2-.45" transform="translate(71.562 45.035)" fill="#fff"/>
        <path id="Path_45413" data-name="Path 45413" d="M81.8,44.8a.809.809,0,0,1,.008-.116c.044-.273.235-.446.431-.384l12.593,4a.545.545,0,0,1,.275.608c-.042.273-.234.446-.429.384l-12.593-4A.506.506,0,0,1,81.8,44.8" transform="translate(73.52 39.81)" fill="#fff"/>
        <path id="Path_45414" data-name="Path 45414" d="M82.383,37.9h0c0-.281.156-.511.355-.513l13.041-.137c.2,0,.363.224.366.505s-.156.511-.357.511L82.749,38.4c-.2,0-.363-.222-.366-.5" transform="translate(74.047 33.482)" fill="#fff"/>
        <path id="Path_45415" data-name="Path 45415" d="M74.146,57.048a.562.562,0,0,1,.186-.45c.173-.135.393-.044.49.2l3.186,8.108a.624.624,0,0,1-.141.689c-.175.135-.393.046-.49-.2l-3.186-8.108a.645.645,0,0,1-.046-.239" transform="translate(66.643 50.814)" fill="#fff"/>
        <path id="Path_45416" data-name="Path 45416" d="M78.021,53.132a.648.648,0,0,1,.072-.311.3.3,0,0,1,.505-.1l5.657,6.017a.653.653,0,0,1,.072.712.3.3,0,0,1-.505.1l-5.657-6.017a.6.6,0,0,1-.144-.4" transform="translate(70.126 47.294)" fill="#fff"/>
        <path id="Path_45417" data-name="Path 45417" d="M80.75,47.773a.76.76,0,0,1,.023-.182c.068-.262.275-.395.463-.3l6.971,3.7a.589.589,0,0,1,.213.653c-.068.264-.275.4-.463.3l-6.969-3.693a.542.542,0,0,1-.237-.475" transform="translate(72.579 42.479)" fill="#fff"/>
        <path id="Path_45418" data-name="Path 45418" d="M82.215,41.315v-.051c.017-.279.192-.486.389-.461l7.607.963c.2.025.344.254.33.553-.015.279-.19.486-.389.461l-7.6-.963a.474.474,0,0,1-.332-.5" transform="translate(73.896 36.671)" fill="#fff"/>
        <path id="Path_45419" data-name="Path 45419" d="M75.837,26.662a.624.624,0,0,1,.093-.347l7.795-12.139a.293.293,0,0,1,.509-.03.663.663,0,0,1,.028.718L76.466,27a.294.294,0,0,1-.509.034.626.626,0,0,1-.12-.372" transform="translate(68.163 12.594)" fill="#fff"/>
        <path id="Path_45420" data-name="Path 45420" d="M79.322,29.466a.559.559,0,0,1,.19-.454L90.489,20.86c.177-.129.395-.034.488.215a.617.617,0,0,1-.148.685L79.854,29.912c-.177.129-.395.034-.49-.215a.685.685,0,0,1-.042-.232" transform="translate(71.296 18.698)" fill="#fff"/>
        <path id="Path_45421" data-name="Path 45421" d="M81.638,33.4a.5.5,0,0,1,.273-.5l12.494-4.3c.194-.066.389.1.439.374a.539.539,0,0,1-.262.613l-12.494,4.3c-.194.066-.389-.1-.439-.374a.613.613,0,0,1-.011-.116" transform="translate(73.377 25.7)" fill="#fff"/>
        <path id="Path_45422" data-name="Path 45422" d="M73.7,23.181a.641.641,0,0,1,.04-.239l2.993-8.182c.091-.249.31-.346.486-.215a.626.626,0,0,1,.156.687l-2.993,8.18c-.091.249-.308.346-.486.215a.567.567,0,0,1-.2-.446" transform="translate(66.242 13.021)" fill="#fff"/>
        <path id="Path_45423" data-name="Path 45423" d="M77.666,26.042a.612.612,0,0,1,.135-.4l5.514-6.148a.3.3,0,0,1,.507.085.656.656,0,0,1-.057.714l-5.512,6.148a.3.3,0,0,1-.507-.085.642.642,0,0,1-.08-.31" transform="translate(69.807 17.42)" fill="#fff"/>
        <path id="Path_45424" data-name="Path 45424" d="M80.521,30.25a.536.536,0,0,1,.226-.477l6.879-3.86c.186-.1.395.025.471.287a.59.59,0,0,1-.2.661l-6.879,3.858c-.186.1-.395-.025-.471-.287a.661.661,0,0,1-.027-.182" transform="translate(72.373 23.259)" fill="#fff"/>
        <path id="Path_45425" data-name="Path 45425" d="M82.139,35.39a.472.472,0,0,1,.319-.509l7.582-1.145c.2-.028.378.173.4.452a.479.479,0,0,1-.317.56l-7.58,1.143c-.2.03-.378-.173-.4-.45l0-.051" transform="translate(73.828 30.32)" fill="#fff"/>
        <path id="Path_45426" data-name="Path 45426" d="M76.107,51.619h0A2.023,2.023,0,0,0,78.123,49.6V34.648a2.017,2.017,0,0,0-4.033,0V49.6a2.023,2.023,0,0,0,2.017,2.017" transform="translate(66.593 29.329)" fill="#2b2b2b"/>
        <path id="Path_45427" data-name="Path 45427" d="M74.4,68.8h0a15.356,15.356,0,0,1-15.31-15.31V41.856a15.31,15.31,0,0,1,30.62,0v11.63A15.356,15.356,0,0,1,74.4,68.8" transform="translate(53.11 23.862)" fill="#555e66"/>
        <path id="Path_45428" data-name="Path 45428" d="M45.956,103.312l-.266.114A10.33,10.33,0,0,1,32.172,98L14.95,57.7l19.207-8.209,17.222,40.3a10.33,10.33,0,0,1-5.423,13.518" transform="translate(13.437 44.486)" fill="#3c3c3c"/>
        <path id="Path_45429" data-name="Path 45429" d="M49.516,94.756l-.266.114a10.33,10.33,0,0,1-13.518-5.423L20.018,52.676,14.95,54.843l17.222,40.3a10.33,10.33,0,0,0,13.518,5.423l.266-.114A10.289,10.289,0,0,0,51.92,93.3a10.154,10.154,0,0,1-2.4,1.458" transform="translate(13.437 47.346)" fill="#2b2b2b"/>
        <path id="Path_45430" data-name="Path 45430" d="M10.38,48.929l7.28,15.5,25.159-10.6V49Z" transform="translate(9.33 43.978)" fill="#2b2b2b"/>
        <path id="Path_45431" data-name="Path 45431" d="M21.443,69.267H55.789V26.38H21.443a21.443,21.443,0,0,0,0,42.887" transform="translate(0 23.711)" fill="#3c3c3c"/>
        <path id="Path_45432" data-name="Path 45432" d="M38.05,42.149H13.571a6.274,6.274,0,0,1,0-12.547H38.05a6.274,6.274,0,0,1,0,12.547" transform="translate(6.559 26.607)" fill="#555e66"/>
        <path id="Path_45433" data-name="Path 45433" d="M62.206,32.14a280.4,280.4,0,0,1-32.825,9.086V81.76a280.406,280.406,0,0,1,32.825,9.086A123.119,123.119,0,0,1,99.92,111.81V11.173A123.145,123.145,0,0,1,62.206,32.14" transform="translate(26.408 10.042)" fill="#0d6191"/>
        <path id="Path_45434" data-name="Path 45434" d="M70.185,117.742h0a3.656,3.656,0,0,1-3.655-3.655V12.453a3.655,3.655,0,1,1,7.31,0V114.087a3.656,3.656,0,0,1-3.655,3.655" transform="translate(59.798 7.908)" fill="#2075a5"/>
        <path id="Path_45435" data-name="Path 45435" d="M99.92,99.27A123.145,123.145,0,0,0,62.206,78.3a280.594,280.594,0,0,0-32.825-9.084V56.455L55.2,62.913A34.879,34.879,0,0,0,97.926,35.6L99.92,25.125Z" transform="translate(26.408 22.583)" fill="#05476c"/>
      </g>
    </g>
  </g>
</svg>
