<svg xmlns="http://www.w3.org/2000/svg" width="37.964" height="37.964" viewBox="0 0 37.964 37.964">
  <g id="Group_1295" data-name="Group 1295" transform="translate(-1545.5 -391.5)">
    <g id="Group_1238" data-name="Group 1238" transform="translate(0 -90.018)">
      <g id="noun-close-2194865" transform="translate(1440.998 447.02)">
        <path id="Path_1131" data-name="Path 1131" d="M123.484,35a18.481,18.481,0,1,0,9.241,2.476A18.482,18.482,0,0,0,123.484,35Zm0,35.644a17.162,17.162,0,1,1,12.136-5.027A17.163,17.163,0,0,1,123.484,70.642Z" transform="translate(0 0)"/>
        <path id="Path_1131_-_Outline" data-name="Path 1131 - Outline" d="M123.484,34.5a18.941,18.941,0,1,1-1.226.039l-.042-.039Zm.071,1h-.07a17.851,17.851,0,1,0,.07,0Zm-.07.32a17.662,17.662,0,1,1-6.759,1.344A17.574,17.574,0,0,1,123.484,35.818Zm0,34.324a16.663,16.663,0,1,0-6.376-1.268A16.58,16.58,0,0,0,123.484,70.142Z" transform="translate(0 0)"/>
      </g>
    </g>
    <path id="Path_1134" data-name="Path 1134" d="M123.034,85.874h3.3l1.6,2.533a.873.873,0,0,0,1.5,0l1.6-2.533h3.344a2.629,2.629,0,0,0,2.634-2.634V76.552a2.629,2.629,0,0,0-2.634-2.634H123.034a2.629,2.629,0,0,0-2.634,2.634V83.24a2.642,2.642,0,0,0,2.634,2.634Zm.649-9.18h9.991V77.91h-9.991Zm0,2.533h9.991v1.216h-9.991Zm0,2.533h5.634v1.216h-5.634Z" transform="translate(1435.6 329.082)"/>
  </g>
</svg>
