<svg xmlns="http://www.w3.org/2000/svg" width="22.358" height="21.344" viewBox="0 0 22.358 21.344">
  <path id="Path_1127" data-name="Path 1127" d="M91.288,24.727a.951.951,0,0,1,.832.6l2.663,5.395a1.375,1.375,0,0,0,.865.629l5.953.867a.877.877,0,0,1,.514,1.583L97.807,38a1.373,1.373,0,0,0-.33,1.017l1.017,5.929a.993.993,0,0,1-.183.846.794.794,0,0,1-.619.28,1.172,1.172,0,0,1-.544-.147l-5.325-2.8a1.366,1.366,0,0,0-1.07,0l-5.324,2.8a1.172,1.172,0,0,1-.544.147.793.793,0,0,1-.618-.279.994.994,0,0,1-.184-.846L85.1,39.014A1.372,1.372,0,0,0,84.769,38L80.46,33.8a.877.877,0,0,1,.514-1.583l5.953-.867a1.372,1.372,0,0,0,.865-.629l2.663-5.393A.951.951,0,0,1,91.288,24.727Zm10.025,8.459L95.5,32.34a2.338,2.338,0,0,1-1.618-1.176l-2.6-5.264-2.6,5.261a2.335,2.335,0,0,1-1.618,1.176l-5.809.846,4.2,4.1a2.335,2.335,0,0,1,.618,1.9l-.992,5.785,5.195-2.731a2.346,2.346,0,0,1,2,0l5.2,2.733-.992-5.785a2.337,2.337,0,0,1,.618-1.9Z" transform="translate(-80.109 -24.727)"/>
</svg>
