<svg xmlns="http://www.w3.org/2000/svg" width="35" height="35" viewBox="0 0 35 35">
  <g id="Group_1532" data-name="Group 1532" transform="translate(-296 -942)" opacity="0.798">
    <circle id="Ellipse_129" data-name="Ellipse 129" cx="17.5" cy="17.5" r="17.5" transform="translate(296 942)" fill="#fff"/>
    <path id="Ellipse_129_-_Outline" data-name="Ellipse 129 - Outline" d="M17.5,1A16.5,16.5,0,0,0,5.833,29.167,16.5,16.5,0,1,0,29.167,5.833,16.392,16.392,0,0,0,17.5,1m0-1A17.5,17.5,0,1,1,0,17.5,17.5,17.5,0,0,1,17.5,0Z" transform="translate(296 942)" fill="#92e682"/>
    <path id="Path_101" data-name="Path 101" d="M208.561,59.345,198.036,69.869,193.87,65.7,190.975,68.6l7.061,7.061,13.418-13.418Z" transform="translate(112.251 891.965)" fill="#92e682"/>
  </g>
</svg>
