<svg xmlns="http://www.w3.org/2000/svg" width="21.069" height="21.054" viewBox="0 0 21.069 21.054">
  <g id="noun_call_2349137" transform="translate(-2.646 -2.667)">
    <path id="Path_358" data-name="Path 358" d="M7.076,2.667a4.679,4.679,0,0,0-1.064.1A7.51,7.51,0,0,0,5,3.05,4.579,4.579,0,0,0,3.409,4.964a5.5,5.5,0,0,0-.553,1.3l0,.011c-.047.168-.078.339-.108.51-.014.077-.036.153-.047.23-.018.128-.02.258-.028.387-.007.108-.023.217-.023.323V7.74a6.579,6.579,0,0,0,.045.764,5.354,5.354,0,0,0,.195.862c.09.319.159.558.209.718.045.111.146.369.245.622.029.075.036.106.069.191.15.383.239.671.269.766a14.776,14.776,0,0,0,.639,1.482,11.259,11.259,0,0,0,.6,1.125,19.1,19.1,0,0,0,1.89,2.5c.411.487.846.982,1.329,1.493A24.492,24.492,0,0,0,10.8,20.545c.435.329.868.638,1.3.9a13,13,0,0,0,1.462.77q.328.152.675.28c.168.067.322.144.5.206.09.03.319.119.718.269.15.056.2.071.314.112a2.756,2.756,0,0,0,.308.11c.056.02.177.061.215.077.056.018.177.051.252.073a3.331,3.331,0,0,0,.46.185,1.8,1.8,0,0,1,.424.056l.071.019c.125.034.248.073.359.116h.8a5.769,5.769,0,0,0,2.781-.748,4.008,4.008,0,0,0,1.824-1.585,3.581,3.581,0,0,0,.159-.462l0-.006c.052-.168.1-.358.153-.549a5.173,5.173,0,0,0,.15-1.052,1.19,1.19,0,0,0-.045-.383c-.008-.011-.064-.05-.08-.067a1.782,1.782,0,0,0-.4-.322c0,.005-.008.011-.011.017-.177-.117-.369-.241-.649-.394-.189-.1-.458-.287-.807-.478s-.668-.287-.957-.478-.545-.287-.795-.478a1.279,1.279,0,0,1-.374-.286,4.436,4.436,0,0,1-.538-.288.674.674,0,0,0-.419-.1,1.119,1.119,0,0,0-.748.383c-.3.287-.576.67-.824.957a6.153,6.153,0,0,1-.792.957,1.017,1.017,0,0,1-.688.383.549.549,0,0,1-.346-.1c-.129,0-.229-.1-.3-.1a1.386,1.386,0,0,1-.359-.191c-.169-.1-.264-.192-.284-.192a16.534,16.534,0,0,1-3.516-2.583,16.015,16.015,0,0,1-2.6-3.54A1.8,1.8,0,0,1,8,11.759c-.1-.191-.169-.287-.209-.383-.03,0-.07-.095-.12-.286A.619.619,0,0,1,7.6,10.8a1.27,1.27,0,0,1,.419-.766c.289-.287.6-.477.927-.764A4.344,4.344,0,0,0,9.874,8.5c.289-.383.434-.573.434-.764a1.182,1.182,0,0,0-.1-.478c-.07-.1-.179-.287-.329-.478C9.734,6.5,9.649,6.4,9.619,6.4c-.15-.287-.306-.575-.465-.862s-.334-.574-.523-.957c-.189-.287-.339-.575-.449-.766a3.192,3.192,0,0,0-.792-1.148Z" transform="translate(0 0)"/>
  </g>
</svg>
