<svg xmlns="http://www.w3.org/2000/svg" width="28.414" height="25.473" viewBox="0 0 28.414 25.473">
  <g id="Group_1538" data-name="Group 1538" transform="translate(-227.349 -259.977)">
    <path id="Path_397" data-name="Path 397" d="M227.349,280.779c.018-.018.05-.034.053-.055a5.651,5.651,0,0,1,.852-1.938q4.808-8.223,9.6-16.454a4.46,4.46,0,0,1,2.209-2.077,3.455,3.455,0,0,1,1.485-.274.415.415,0,0,1,.087.311q0,1.645,0,3.29a.677.677,0,0,1-.037.244c-.064.139-.2.152-.324.175a1.822,1.822,0,0,0-1.585,1.9q0,4.6,0,9.2a1.833,1.833,0,0,0,1.525,1.9.627.627,0,0,1,.357.134.49.49,0,0,1,.062.293c-.011.523.036,1.048-.027,1.57-.08.175-.256.161-.4.193a1.861,1.861,0,0,0-1.351,1.039,1.887,1.887,0,0,0,1.255,2.641c.172.04.379.007.493.2a20.638,20.638,0,0,1,.024,2.194.235.235,0,0,1-.076.172c-.859,0-1.718.008-2.578.009-2.458,0-4.916-.033-7.374.011a4.1,4.1,0,0,1-4.187-3.308c-.01-.051,0-.114-.063-.141Z" fill="#f9c067"/>
    <path id="Path_398" data-name="Path 398" d="M305.964,279.075l0-1.927.032-.037a1.553,1.553,0,0,1,.4-.109,1.851,1.851,0,0,0,1.434-1.64,7.072,7.072,0,0,0,.048-.884q0-4.061,0-8.121a4.2,4.2,0,0,0-.04-.607,1.87,1.87,0,0,0-1.617-1.75.561.561,0,0,1-.258-.116V260a3.786,3.786,0,0,1,3.479,1.978q4.452,7.576,8.862,15.178.67,1.147,1.341,2.294a4.031,4.031,0,0,1-2.845,5.957,3.359,3.359,0,0,1-.522.051H306.186c-.074,0-.148-.006-.221-.009q0-1.212,0-2.424l.026-.033a4.137,4.137,0,0,0,.89-.285,1.9,1.9,0,0,0-.6-3.526C306.179,279.14,306.047,279.178,305.964,279.075Z" transform="translate(-64.415 -0.022)" fill="#f7ab05"/>
    <path id="Path_399" data-name="Path 399" d="M297.106,281.483c.077.017.163-.009.231.049a.759.759,0,0,0-.142.574q0,6.058,0,12.117c0,.171.043.355-.091.5l.005.022a1.991,1.991,0,0,1-1.916-1.556,2.545,2.545,0,0,1-.039-.579q0-4.492,0-8.985A1.938,1.938,0,0,1,297,281.516.635.635,0,0,0,297.106,281.483Z" transform="translate(-55.556 -17.621)" fill="#0c5f8e"/>
    <path id="Path_400" data-name="Path 400" d="M297.066,365.589c.112.024.236-.021.338.059-.232.1-.255.3-.253.525.007.976,0,1.952,0,2.927,0,.144.028.3-.089.419l.005.022a1.965,1.965,0,0,1-.329-3.9Z" transform="translate(-55.516 -86.535)" fill="#0c5f8e"/>
    <path id="Path_401" data-name="Path 401" d="M305.95,294.934q0-6.435,0-12.871c0-.166-.037-.353.232-.323a1.91,1.91,0,0,1,1.707,1.625,6.342,6.342,0,0,1,.039.69q0,4.351,0,8.7a2.091,2.091,0,0,1-.713,1.727A1.775,1.775,0,0,1,305.95,294.934Z" transform="translate(-64.403 -17.829)" fill="#05476c"/>
    <path id="Path_402" data-name="Path 402" d="M305.935,369.738c0-1.172.011-2.345,0-3.517,0-.27.054-.405.344-.355a1.918,1.918,0,0,1,1.623,1.844A1.941,1.941,0,0,1,305.935,369.738Z" transform="translate(-64.388 -86.754)" fill="#05476c"/>
  </g>
</svg>
