<svg xmlns="http://www.w3.org/2000/svg" width="20.997" height="21.002" viewBox="0 0 20.997 21.002">
  <g id="noun_X_1890803" transform="translate(-2.525 -2.525)">
    <path fill="#0D6191" id="Path_290" data-name="Path 290" d="M15.345,13.023l7.7-7.7a1.642,1.642,0,0,0-2.322-2.322l-7.7,7.7-7.7-7.7A1.642,1.642,0,0,0,3.006,5.328l7.7,7.7-7.7,7.7a1.648,1.648,0,0,0,1.15,2.808,1.556,1.556,0,0,0,1.15-.486l7.718-7.7,7.7,7.7a1.645,1.645,0,0,0,1.15.486,1.556,1.556,0,0,0,1.15-.486,1.642,1.642,0,0,0,0-2.322Z"/>
  </g>
</svg>
