<svg xmlns="http://www.w3.org/2000/svg" width="15.213" height="15.217" viewBox="0 0 15.213 15.217">
  <g id="noun_X_1890803" transform="translate(-2.525 -2.525)">
    <path id="Path_290" data-name="Path 290" d="M11.814,10.132,17.39,4.556a1.19,1.19,0,0,0-1.682-1.682L10.132,8.449,4.556,2.873A1.19,1.19,0,0,0,2.873,4.556l5.576,5.576L2.873,15.707a1.194,1.194,0,0,0,.833,2.035,1.127,1.127,0,0,0,.833-.352l5.592-5.576,5.576,5.576a1.192,1.192,0,0,0,.833.352,1.127,1.127,0,0,0,.833-.352,1.189,1.189,0,0,0,0-1.682Z" transform="translate(0 0)"/>
  </g>
</svg>
