<svg xmlns="http://www.w3.org/2000/svg" width="13.796" height="13.8" viewBox="0 0 13.796 13.8">
  <g id="noun_X_1890803" transform="translate(-2.525 -2.525)">
    <path id="Path_290" data-name="Path 290" d="M10.949,9.423l5.057-5.056A1.079,1.079,0,0,0,14.48,2.841L9.423,7.9,4.367,2.841A1.079,1.079,0,0,0,2.841,4.367L7.9,9.423,2.841,14.48A1.083,1.083,0,0,0,3.6,16.325a1.022,1.022,0,0,0,.756-.32l5.071-5.057,5.057,5.057a1.081,1.081,0,0,0,.756.32,1.022,1.022,0,0,0,.756-.32,1.079,1.079,0,0,0,0-1.526Z" fill="#333"/>
  </g>
</svg>
