<svg xmlns="http://www.w3.org/2000/svg" width="60" height="60" viewBox="0 0 60 60">
  <g id="Group_1033" data-name="Group 1033" transform="translate(2532 2896)">
    <rect id="Rectangle_50" data-name="Rectangle 50" width="60" height="60" transform="translate(-2532 -2896)" fill="#fff" opacity="0"/>
    <g id="noun_Home_1570517" transform="translate(-2531 -2900)">
      <g id="Group_150" data-name="Group 150" transform="translate(10 19)">
        <path id="Path_111" data-name="Path 111" d="M29.421,971.362a1.043,1.043,0,0,0-.577.2L10.369,986.145a1.006,1.006,0,0,0-.167,1.383,1.021,1.021,0,0,0,1.383.152l17.867-14.1,17.867,14.1a.979.979,0,0,0,1.215-1.535L30.059,971.56A1.11,1.11,0,0,0,29.421,971.362Zm.03,3.889-13.127,10.21V1001.5h8.265v-4.862a4.862,4.862,0,1,1,9.723,0v4.862h8.265V985.461Z" transform="translate(-10 -971.362)" fill="#c7c7c7"/>
      </g>
    </g>
  </g>
</svg>
