<svg xmlns="http://www.w3.org/2000/svg" width="60" height="60" viewBox="0 0 60 60">
  <g id="Group_1041" data-name="Group 1041" transform="translate(2429 2896)">
    <rect id="Rectangle_49" data-name="Rectangle 49" width="60" height="60" transform="translate(-2429 -2896)" fill="#fff" opacity="0"/>
    <g id="noun_verification_job_3346948" data-name="noun_verification job_3346948" transform="translate(-2422.7 -2897.2)">
      <path id="Path_268" data-name="Path 268" d="M36.693,20.608H30.761V18.2a2.827,2.827,0,0,0-2.623-3H19.663a2.827,2.827,0,0,0-2.623,3v2.4H10.462c-2.623,0-4.762,2.45-4.762,5.454V41.915c0,3,2.139,5.454,4.762,5.454H36.693c2.623,0,4.762-2.45,4.762-5.454V26.062C41.455,23.057,39.316,20.608,36.693,20.608ZM19.058,18.2a.671.671,0,0,1,.605-.693h8.475a.67.67,0,0,1,.605.693v2.4H19.058Zm13.761,11.37L22.084,41.129a1.534,1.534,0,0,1-2.179.185l-5.367-4.622a1.746,1.746,0,0,1-.686-1.294,2.093,2.093,0,0,1,.323-1.433,1.543,1.543,0,0,1,2.381-.37l4.237,3.651L30.478,26.8a1.538,1.538,0,0,1,2.421.046A2.158,2.158,0,0,1,32.819,29.574Z" transform="translate(0 0)" fill="#c7c7c7"/>
    </g>
  </g>
</svg>
