<svg xmlns="http://www.w3.org/2000/svg" width="60" height="60" viewBox="0 0 60 60">
  <g id="Group_1036" data-name="Group 1036" transform="translate(2233 2896)">
    <rect id="Rectangle_47" data-name="Rectangle 47" width="60" height="60" transform="translate(-2233 -2896)" fill="#fff" opacity="0"/>
    <g id="noun_User_2287596" transform="translate(-2220 -2886)">
      <g id="Group_219" data-name="Group 219">
        <path id="Path_280" data-name="Path 280" d="M24.486,4a8.863,8.863,0,1,1-8.863,8.863A8.861,8.861,0,0,1,24.486,4Zm0,39.174h.245a21.607,21.607,0,0,0,17.251-8.919l-1.021-4.3c-.329-2.294-1.819-3.826-4.274-4.722L30.292,23.4a12.1,12.1,0,0,1-11.612,0l-6.394,1.84c-2.455.9-3.945,2.427-4.274,4.722l-1.021,4.3a21.587,21.587,0,0,0,17.251,8.919h.245Z" transform="translate(-6.99 -4)" fill="#c7c7c7" fill-rule="evenodd"/>
      </g>
    </g>
  </g>
</svg>
