<svg xmlns="http://www.w3.org/2000/svg" width="43.634" height="43.634" viewBox="0 0 43.634 43.634">
  <g id="Group_128" data-name="Group 128" transform="translate(-337.972 -49.663)">
    <g id="Group_126" data-name="Group 126" transform="translate(360.582 51.299)">
      <path id="Path_93" data-name="Path 93" d="M381.795,70.3h-2a17.93,17.93,0,0,0-17.91-17.91v-2A19.932,19.932,0,0,1,381.795,70.3Z" transform="translate(-361.885 -51.393)" fill="#378cbc"/>
      <path id="Path_94" data-name="Path 94" d="M375.176,70.684h-2a11.3,11.3,0,0,0-11.291-11.291v-2A13.306,13.306,0,0,1,375.176,70.684Z" transform="translate(-361.885 -51.775)" fill="#378cbc"/>
      <path id="Path_95" data-name="Path 95" d="M368.558,71.066h-2a4.678,4.678,0,0,0-4.673-4.673v-2A6.68,6.68,0,0,1,368.558,71.066Z" transform="translate(-361.885 -52.156)" fill="#378cbc"/>
    </g>
    <path id="Path_96" data-name="Path 96" d="M381.554,80.542a4.449,4.449,0,0,0-4.4-4.4l-7.145-.052a4.3,4.3,0,0,0-4.348,4.309l-.416,3.353a16.942,16.942,0,0,1-17.73-17.73l3.312-.414a4.309,4.309,0,0,0,4.35-4.349l-.052-7.146a4.451,4.451,0,0,0-4.4-4.4l-5.255-.051a2.678,2.678,0,0,0-2.453.959l.013.009a28.084,28.084,0,0,0-4.907,13.121A27.14,27.14,0,0,0,345.4,85.36l-.014.014c.09.09.184.173.275.262s.153.166.234.247l.012-.013A27.052,27.052,0,0,0,364.591,93.3a28,28,0,0,0,16.047-5.06l.009.012a2.667,2.667,0,0,0,.96-2.453Z" fill="#156c9d"/>
    <g id="Group_127" data-name="Group 127" transform="translate(349.519 49.706)">
      <path id="Path_97" data-name="Path 97" d="M351.392,49.717l-1.207-.009V65.715l1.309-.1a4.307,4.307,0,0,0,4.35-4.349l-.052-7.146A4.452,4.452,0,0,0,351.392,49.717Z" transform="translate(-350.185 -49.708)" fill="#0f557c"/>
      <path id="Path_98" data-name="Path 98" d="M371.6,77.615a4.3,4.3,0,0,0-4.347,4.309l-.032.4h15.927l0-.255a4.45,4.45,0,0,0-4.4-4.4Z" transform="translate(-351.114 -51.229)" fill="#0f557c"/>
    </g>
  </g>
</svg>
