<svg xmlns="http://www.w3.org/2000/svg" width="47.724" height="40.634" viewBox="0 0 47.724 40.634">
  <g id="Group_125" data-name="Group 125" transform="translate(-50.074 -438.552)">
    <g id="Group_123" data-name="Group 123">
      <path id="Path_88" data-name="Path 88" d="M97.8,468.6V438.552H50.074V468.6H97.8Z" fill="#378cbc"/>
      <path id="Path_89" data-name="Path 89" d="M97.8,468.6V438.552L73.936,455.146,50.074,438.552V468.6H97.8Z" fill="#0f557c"/>
      <path id="Path_90" data-name="Path 90" d="M97.8,443.243v-4.691L73.936,455.146Z" fill="#04507b"/>
    </g>
    <g id="Group_124" data-name="Group 124">
      <path id="Path_91" data-name="Path 91" d="M83.51,479.186a11.5,11.5,0,1,1,11.5-11.5,11.548,11.548,0,0,1-.286,2.56l-1.95-.444a9.5,9.5,0,1,0-9.264,7.384,9.412,9.412,0,0,0,5.755-1.94,9.593,9.593,0,0,0,1.267-1.161l1.479,1.346a11.6,11.6,0,0,1-1.532,1.4A11.4,11.4,0,0,1,83.51,479.186Z" fill="#378cbc"/>
      <path id="Ellipse_20" data-name="Ellipse 20" d="M4.5-1A5.5,5.5,0,1,1-1,4.5,5.506,5.506,0,0,1,4.5-1Zm0,9A3.5,3.5,0,1,0,1,4.5,3.5,3.5,0,0,0,4.5,8Z" transform="translate(79.01 463.186)" fill="#378cbc"/>
      <path id="Path_92" data-name="Path 92" d="M90.828,473.192a4.039,4.039,0,0,1-4.053-4.016h2a2.054,2.054,0,0,0,4.107,0h2A4.04,4.04,0,0,1,90.828,473.192Z" fill="#378cbc"/>
    </g>
  </g>
</svg>
