<svg xmlns="http://www.w3.org/2000/svg" xmlns:xlink="http://www.w3.org/1999/xlink" width="142.832" height="145.611" viewBox="0 0 142.832 145.611">
  <defs>
    <linearGradient id="linear-gradient" x1="0.5" x2="0.5" y2="1" gradientUnits="objectBoundingBox">
      <stop offset="0" stop-color="#0d6191"/>
      <stop offset="1" stop-color="#0c5e8d"/>
    </linearGradient>
    <clipPath id="clip-path">
      <rect id="Rectangle_420" data-name="Rectangle 420" width="85.521" height="85.499" fill="none"/>
    </clipPath>
  </defs>
  <g id="Group_1491" data-name="Group 1491" transform="translate(-136 -180)">
    <g id="Group_1317" data-name="Group 1317" transform="translate(3 33)">
      <g id="Group_347" data-name="Group 347" transform="translate(133 147)">
        <g id="Group_346" data-name="Group 346">
          <circle id="Ellipse_67" data-name="Ellipse 67" cx="69.3" cy="69.3" r="69.3" transform="translate(4.233 7.012)" opacity="0.069" style="mix-blend-mode: multiply;isolation: isolate"/>
          <circle id="Ellipse_68" data-name="Ellipse 68" cx="67.159" cy="67.159" r="67.159" transform="translate(0)" fill="url(#linear-gradient)"/>
        </g>
      </g>
    </g>
    <g id="Group_1433" data-name="Group 1433" transform="translate(165 206)">
      <g id="Group_1432" data-name="Group 1432" clip-path="url(#clip-path)">
        <path id="Path_1612" data-name="Path 1612" d="M184.762,329.235c-1.684-.519-3.425-.79-5.143-1.152q-7.53-1.588-15.074-3.1a22.728,22.728,0,0,0-3-.593c.142-.538.608-.41.958-.419,1.445-.036,2.891-.015,4.337-.015q5.881,0,11.761,0c1.181,0,1.214-.036,1.214-1.218q0-6.548,0-13.1a2.506,2.506,0,0,1,.195-1.382c.263-.212.336.01.394.193a3.279,3.279,0,0,1,.071,1q0,6.556,0,13.111a5.364,5.364,0,0,0,.023.823c.234.042.316-.132.425-.241,3.28-3.293,6.714-6.429,9.95-9.767.293-.3.533-.743,1.074-.673q-1.172,5.64-2.345,11.279c-.175.839-.332,1.684-.563,2.508a4.265,4.265,0,0,1-2.776,2.75Z" transform="translate(-127.777 -243.755)" fill="#e7e9e8"/>
        <path id="Path_1613" data-name="Path 1613" d="M.237,335.481H.071v-1.671H.236a1.431,1.431,0,0,1,0,1.673" transform="translate(-0.056 -264.034)" fill="#f2f3f2"/>
        <path id="Path_1614" data-name="Path 1614" d="M76.142,82.1c-.3.272-.165.628-.165.945-.009,4.725-.022,9.451.011,14.176.005.737-.2.935-.932.931-5.559-.031-11.118-.019-16.677-.011-.318,0-.673-.128-.949.159a4.816,4.816,0,0,0-1.4-.17q-10.9.01-21.791,0c-2.144,0-3.589-1.017-3.973-2.936a14.815,14.815,0,0,1-.077-2.577,1.518,1.518,0,0,1-.269-1.106q-.009-15.753-.008-31.506a11.449,11.449,0,0,0,.112-2.3,10.168,10.168,0,0,0,.166-2.482q0-14.32-.009-28.639a3.7,3.7,0,0,1,3.937-3.964c1.085-.008,2.171,0,3.256,0a1.538,1.538,0,0,1,1.106-.269c8-.006,15.992,0,23.988-.013a11.234,11.234,0,0,0,2.468.117,4.8,4.8,0,0,0,1.393.17q11-.01,22,0c2.649,0,4.162,1.518,4.176,4.181,0,.5,0,1,0,1.5a1.778,1.778,0,0,1,.269,1.032q0,10.134-.005,20.268a3.379,3.379,0,0,1-.035.413,1.394,1.394,0,0,1-.677.994c-2.138,1.712-4.241,3.469-6.405,5.147-.3.233-.619.756-1.121.248a6.033,6.033,0,0,1-.146-2.069c-.013-.582-.234-.888-.843-.866-.25.009-.5,0-.751,0H39.808c-1.492,0-1.493,0-1.492,1.523,0,1.909-.077,1.778,1.766,1.778q21.077,0,42.153,0a4.6,4.6,0,0,1,1.57.12c.562.421.069.668-.187.886-1.138.964-2.318,1.876-3.483,2.809-1.229.984-2.454,1.972-3.689,2.948-.589.383-1.085.893-1.686,1.262a1.364,1.364,0,0,1-.413.136A10.657,10.657,0,0,1,72.762,65h-32.9c-1.546,0-1.546,0-1.547,1.576,0,1.557,0,1.559,1.554,1.559q14.237,0,28.474,0a8.172,8.172,0,0,1,1.414.053c.4.091.505.3.253.651a2.772,2.772,0,0,1-.332.375c-1.608,1.541-3.107,3.187-4.629,4.81q-2.211,2.407-4.186,5.01c-.192.253-.32.912-.9.395a4.373,4.373,0,0,1-.13-1.571c-.016-1.308-.032-1.333-1.373-1.335q-3.547,0-7.094,0-5.968,0-11.935,0c-1.073,0-1.121.047-1.118,1.138.006,2.21-.18,2,1.95,2q9.014.011,18.028,0a6.375,6.375,0,0,1,1.329.064c.632.219.328.615.123.914-.519.756-1,1.534-1.507,2.3a1.583,1.583,0,0,0-.414.892c.273.145.49-.04.707-.122a66.932,66.932,0,0,0,9.922-4.517,4.854,4.854,0,0,0,.554-.369c2.534-1.609,5.149-3.092,7.568-4.883,1.163-.861,2.242-1.827,3.418-2.668a18.137,18.137,0,0,0,1.6-1.322,13.876,13.876,0,0,1,2.373-1.7.631.631,0,0,0,.608-.548A13.724,13.724,0,0,1,86.96,65.64q2.257-1.847,4.552-3.646c.278-.219.535-.518.957-.335.46.454.14,1.07.331,1.58a3.118,3.118,0,0,1,.119.468,4.454,4.454,0,0,0-.268,1.694c-.251.289-.136.638-.136.958-.008,4.989,0,9.977-.011,14.966,0,.316.132.672-.167.941a11.37,11.37,0,0,1-2.074.106q-6.381,0-12.763,0a1.9,1.9,0,0,1-1.358-.263" transform="translate(-23.663 -17.672)" fill="#f2f2f2"/>
        <path id="Path_1615" data-name="Path 1615" d="M267.732,153.895,260.1,159.98a1.229,1.229,0,0,1-.716.606l-2.325,1.762c-.325,0-.471-.249-.645-.461-1.469-1.795-2.865-3.649-4.331-5.447a1.075,1.075,0,0,1-.366-.8l7.711-6.231a.986.986,0,0,1,.813-.654l7.7-6.192a13.265,13.265,0,0,1,3.513-2.816l1.029-.8c.292-.1.393.152.516.306,1.549,1.949,3.1,3.9,4.594,5.888a.926.926,0,0,1,.269.591,2.1,2.1,0,0,1-.779.845c-2.786,2.259-5.587,4.5-8.377,6.753-.336.172-.569.523-.979.568" transform="translate(-199.101 -109.883)" fill="#ffc425"/>
        <path id="Path_1616" data-name="Path 1616" d="M251.065,308.185q7.708,0,15.415,0c.265,0,.563-.1.779.161q-1.914,1.873-3.83,3.744c-.215.21-.447.4-.671.605-1.862,1.831-3.694,3.695-5.6,5.485-1.922,1.81-3.805,3.657-5.673,5.522-.092.091-.2.163-.427.341Z" transform="translate(-198.586 -243.752)" fill="#fff"/>
        <path id="Path_1617" data-name="Path 1617" d="M7.047,191.551c.3.3.159.688.159,1.033q.012,16.941.007,33.882c-1.35-.291-2.728-.49-4.041-.9A3.261,3.261,0,0,1,.862,222.96q0-.837,0-1.673l2.443-11.748,3.589-17.26q.076-.364.152-.727" transform="translate(-0.682 -151.512)" fill="#e7e9e8"/>
        <path id="Path_1618" data-name="Path 1618" d="M332.869,70.1c-1.127.994-2.3,1.929-3.513,2.816q0-11.021,0-22.043c1.021.222,2.037.473,3.065.659a3.741,3.741,0,0,1,3.243,4.711c-.9,4.347-1.818,8.689-2.722,13.034a7.069,7.069,0,0,0-.076.823" transform="translate(-260.512 -40.239)" fill="#e7e9e8"/>
        <path id="Path_1619" data-name="Path 1619" d="M93.178,4.787c-.276.287-.631.159-.949.159q-13.306.011-26.612.006c.123-.623.227-1.25.372-1.868.6-2.542,2.489-3.519,5.3-2.907,5.964,1.3,11.942,2.525,17.914,3.78q1.985.417,3.971.83" transform="translate(-51.901 0)" fill="#e7e9e8"/>
        <path id="Path_1620" data-name="Path 1620" d="M338.9,136.681l-5.308-6.814c-.126-.265.056-.405.224-.55.645-.557,1.3-1.1,1.931-1.674.242-.219.441-.3.675-.02a1.559,1.559,0,0,1,.585.452q2.3,2.892,4.613,5.772a.987.987,0,0,1,.2.533c-.483.946.262,1.462.728,2.074l.254.331c.725.945.681,1.442-.238,2.177q-4.818,3.854-9.647,7.695c-.761.607-1.545,1.187-2.271,1.831a.939.939,0,0,1-1.455.047,1.3,1.3,0,0,1,.177-1.684c.067-.3.308-.451.525-.623,3.266-2.6,6.5-5.229,9.783-7.806.266-.209.734-.358.578-.809s-.424-.86-1.045-.7c-.138.035-.251-.093-.313-.23" transform="translate(-260.21 -100.806)" fill="#344a5e"/>
        <path id="Path_1621" data-name="Path 1621" d="M370.033,124.608l-5.4-6.757c.734-.59,1.462-1.19,2.2-1.77a4.315,4.315,0,1,1,5.38,6.738c-.726.6-1.455,1.193-2.183,1.789" transform="translate(-288.415 -91.034)" fill="#ffc425"/>
        <path id="Path_1622" data-name="Path 1622" d="M91.891,119.4c-7.429,0-14.858-.009-22.287.015-.7,0-1.019-.134-.949-.909a20.107,20.107,0,0,0,.01-2.336c-.011-.422.133-.63.575-.588.166.016.334,0,.5,0q22.245,0,44.49-.017c.806,0,1.186.14,1.071,1.035a9.123,9.123,0,0,0,0,1.917c.058.683-.16.9-.871.9-4.619-.031-9.237-.016-13.856-.016Z" transform="translate(-54.297 -91.412)" fill="#ffc425"/>
        <path id="Path_1623" data-name="Path 1623" d="M115.54,173.242l-.814.654c-.312-.282-.692-.15-1.039-.15q-21.914-.011-43.829-.006c-1.081,0-1.081,0-1.082-1.081,0-.724.015-1.448-.005-2.171-.012-.429.15-.623.584-.585.166.014.334,0,.5,0q22.248,0,44.5-.02c.855,0,1.1.22,1.062,1.065a4.875,4.875,0,0,0,.125,2.293" transform="translate(-54.396 -134.374)" fill="#fff"/>
        <path id="Path_1624" data-name="Path 1624" d="M100.9,228.714,69.848,228.7c-1.07,0-1.07,0-1.071-1.092,0-.668.016-1.336,0-2-.013-.428.148-.621.583-.587.221.017.445,0,.668,0h34.22c.362,0,.723-.011,1.085-.017.171.247-.063.355-.188.464-1.169,1.018-2.437,1.918-3.571,2.981a.772.772,0,0,1-.673.263" transform="translate(-54.397 -177.975)" fill="#fff"/>
        <path id="Path_1625" data-name="Path 1625" d="M202.588,228.359l4.432-3.707a.463.463,0,0,1,.131-.094c.6.251.852.842,1.227,1.294,1.232,1.486,2.434,3,3.665,4.483.235.284.566.545.528.987a69.579,69.579,0,0,1-11.042,7.561.467.467,0,0,1-.5-.222c-1.161-1.384-2.318-2.772-3.442-4.187-.135-.17-.3-.342-.238-.6,1.46-1.733,3.065-3.329,4.673-4.922.2-.193.378-.4.566-.6" transform="translate(-156.088 -177.619)" fill="#ffc425"/>
        <path id="Path_1626" data-name="Path 1626" d="M90.586,283.88c-6.957,0-13.915-.018-20.872.023-.886.005-1.114-.267-1.035-1.083a14.644,14.644,0,0,0,.006-2c-.019-.476.173-.668.635-.618a2.33,2.33,0,0,0,.25,0c6.763,0,13.525.009,20.288-.014.675,0,.927.158.907.874a7.37,7.37,0,0,0,.1,2.475c.131.3-.037.351-.28.343" transform="translate(-54.312 -221.622)" fill="#fff"/>
        <path id="Path_1627" data-name="Path 1627" d="M163.876,275.154l.28-.343a49.909,49.909,0,0,1,4.707-5.655l4.18,5a11,11,0,0,1-2.827,1.658,73.121,73.121,0,0,1-8.155,3.494c-.21.077-.476.332-.676.064-.183-.244.082-.464.207-.662.754-1.191,1.521-2.373,2.284-3.559" transform="translate(-127.602 -212.896)" fill="#344a5e"/>
        <path id="Path_1629" data-name="Path 1629" d="M69.2,319.972a11.433,11.433,0,0,1-.421,1.831c-.06.231-.439.547.037.77.414.195.821.36,1.2-.086a4.716,4.716,0,0,1,1.118-1.112c.459-.269.775-.174.945.367.246.783.516.911,1.256.489a.559.559,0,0,1,.837.144,1.434,1.434,0,0,0,2.3.189c.606-.48,1.073-.651,1.7-.041a2.661,2.661,0,0,0,1.564.505c.252.036.533.094.5.431s-.269.444-.6.425a3.071,3.071,0,0,1-1.794-.577.657.657,0,0,0-.88-.031,2.469,2.469,0,0,1-3.025-.067c-.084-.066-.212-.164-.286-.14a2.068,2.068,0,0,1-2.423-.562c-.192-.221-.335.1-.426.215a1.836,1.836,0,0,1-2.493.626c-.386-.194-.436.087-.527.292a5.131,5.131,0,0,1-1.856,2.091c-.323.227-.738.6-1.047.149-.276-.407.059-.755.482-.963a4.788,4.788,0,0,0,1.807-1.687c.262-.383.275-.663-.171-.952a10.657,10.657,0,0,1-1.437-1.135,2.28,2.28,0,0,1-.6-2.857,2.184,2.184,0,0,1,2.212-1.009,2.488,2.488,0,0,1,2.02,2.248c.01.11,0,.222,0,.449" transform="translate(-51.17 -250.933)" fill="#344a5e"/>
        <path id="Path_1630" data-name="Path 1630" d="M249.712,226.839q-2.452-3.006-4.9-6.013c-.191-.236-.346-.5-.518-.752l1.557-1.184,5.341,6.711a8.427,8.427,0,0,1-1.478,1.239" transform="translate(-193.229 -173.136)" fill="#344a5e"/>
        <path id="Path_1631" data-name="Path 1631" d="M329.2,207.231l-.478,2.4c-.445-.5.139-1.223-.382-1.7a2.74,2.74,0,0,1,.86-.7" transform="translate(-259.705 -163.915)" fill="#e9e9e8"/>
        <path id="Path_1632" data-name="Path 1632" d="M288.418,240.276a2.089,2.089,0,0,1,.715-.606c.059.553-.219.709-.715.606" transform="translate(-228.132 -189.573)" fill="#d3ced4"/>
        <path id="Path_1633" data-name="Path 1633" d="M71.853,324.539c-.653-.431-1.2-.764-1.713-1.139a1.287,1.287,0,0,1-.519-1.609,1.049,1.049,0,0,1,1.14-.78,1.323,1.323,0,0,1,1.374,1.088,6.185,6.185,0,0,1-.282,2.441" transform="translate(-54.986 -253.906)" fill="#f1f1f1"/>
      </g>
    </g>
  </g>
</svg>
